<svg width="114.27620250794313" height="100.87499136016145" xmlns="http://www.w3.org/2000/svg"><style><![CDATA[@import url("https://fonts.googleapis.com/css?family=Archivo+Narrow:700i");]]><![CDATA[@import url("https://fonts.googleapis.com/css?family=Archivo+Narrow:700");]]></style><rect x="0" y="0" width="114.27620250794313" height="100.87499136016145" id="background" fill="#CCC5B8"/><g id="map" transform="translate(57.13810125397156 50.43749568008072)"><g fill="none"><polyline points="11.30166160313183,10.76780971086498 13.115216096807387,22.905987752707468 18.448405370065714,28.936460387026308 21.258232192967462,31.982437700611236 23.32242632326541,34.054077238235195 25.233564346877152,35.8214315148225 26.991646263802693,37.28450053037315 28.794197602681216,38.66663512319526 30.641218363512735,39.967835293288815 32.532708546297236,41.188101040653834 34.468668151034734,42.32743236529029 36.410766897468335,43.39056100682165 38.35900478559805,44.37748696524789 40.313381815423874,45.288210240569015 42.27389798694581,46.12273083278504 44.24055330016385,46.88104874189594 46.213347755078004,47.56316396790174 48.192281351688266,48.16907651080241 50.17735408999465,48.698786370597986 52.219208376696145,49.25396905679511 54.317844211792746,49.83462456939379 56.47326159528447,50.440752908394025 58.685460527171315,51.07235407379581 60.95444100745327,51.72942806559915 63.28020303613036,52.411974883804056 65.66274661320256,53.11999452841051 68.10207173866986,53.85348699941852 70.58082364155243,54.39110294967281 73.09900232185021,54.73284237917338 75.65660777956325,54.878705287920226 78.25364001469151,54.82869167591336 80.89009902723502,54.58280154315277 83.56598481719377,54.141034889638455 86.28129738456775,53.50339171537043 89.03603672935698,52.66987202034868 92.71479230356292,53.21857610197149 97.31756410718555,55.14950396023886 102.84435214022491,58.46265559515081 109.29515640268097,63.158031006707304 117.93833554206911,70.51366400967521 128.77388955838933,80.52955460405454 145.6068943941877,97.03980423414579 179.85257787710248,131.5467172328506" stroke="#67635C" stroke-width="2.1" stroke-linejoin="round" stroke-linecap="butt"/><polyline points="11.30166160313183,10.76780971086498 13.115216096807387,22.905987752707468 18.448405370065714,28.936460387026308 21.258232192967462,31.982437700611236 23.32242632326541,34.054077238235195 25.233564346877152,35.8214315148225 26.991646263802693,37.28450053037315 28.794197602681216,38.66663512319526 30.641218363512735,39.967835293288815 32.532708546297236,41.188101040653834 34.468668151034734,42.32743236529029 36.410766897468335,43.39056100682165 38.35900478559805,44.37748696524789 40.313381815423874,45.288210240569015 42.27389798694581,46.12273083278504 44.24055330016385,46.88104874189594 46.213347755078004,47.56316396790174 48.192281351688266,48.16907651080241 50.17735408999465,48.698786370597986 52.219208376696145,49.25396905679511 54.317844211792746,49.83462456939379 56.47326159528447,50.440752908394025 58.685460527171315,51.07235407379581 60.95444100745327,51.72942806559915 63.28020303613036,52.411974883804056 65.66274661320256,53.11999452841051 68.10207173866986,53.85348699941852 70.58082364155243,54.39110294967281 73.09900232185021,54.73284237917338 75.65660777956325,54.878705287920226 78.25364001469151,54.82869167591336 80.89009902723502,54.58280154315277 83.56598481719377,54.141034889638455 86.28129738456775,53.50339171537043 89.03603672935698,52.66987202034868 92.71479230356292,53.21857610197149 97.31756410718555,55.14950396023886 102.84435214022491,58.46265559515081 109.29515640268097,63.158031006707304 117.93833554206911,70.51366400967521 128.77388955838933,80.52955460405454 145.6068943941877,97.03980423414579 179.85257787710248,131.5467172328506" stroke="#CCC5B8" stroke-width="1.9" stroke-linejoin="round" stroke-linecap="round"/></g><g fill="none"><polyline points="6.270222534976954,-18.206750689964117 13.844235554649945,-17.387237911198007 25.54226563340786,-24.07444413208726 26.117342568079405,-30.628936525596004 26.35927424001747,-34.081344610046024 26.459752960779234,-36.61649918327356 26.482676167550434,-38.96267717789071 26.428043860331062,-41.119878593897454 26.317155184849696,-43.33086240883117 26.15001014110633,-45.595628622691855 25.926608729100973,-47.9141772354795 25.64695094883362,-50.286508247194114 25.40318659309811,-52.61702757125325 25.195315661894433,-54.905735207656925 25.0233381552226,-57.15263115640512 24.887254073082605,-59.35771541749785 24.78706341547445,-61.520987990935105 24.722766182398132,-63.64244887671689 24.694362373853654,-65.7220980748432 24.701851989841014,-67.75993558531404 24.555641148972263,-69.9765656754344 24.255729851247395,-72.37198834520429 23.80211809666642,-74.9462035946237 23.194805885229336,-77.69921142369263 22.433793216936134,-80.63101183241109 21.51908009178682,-83.74160482077907 20.450666509781392,-87.03099038879658 19.228552470919855,-90.49916853646361 18.41819799723708,-93.81087413322408 18.019603088733078,-96.96610717907794 18.03276774540784,-99.96486767402524 18.45769196726136,-102.80715561806593 19.55337106461473,-105.77002072875187 21.319805037467937,-108.85346300608305 24.533979816784207,-112.88863160271484 31.526853195453203,-120.36897397661345" stroke="#67635C" stroke-width="2.1" stroke-linejoin="round" stroke-linecap="butt"/><polyline points="6.270222534976954,-18.206750689964117 13.844235554649945,-17.387237911198007 25.54226563340786,-24.07444413208726 26.117342568079405,-30.628936525596004 26.35927424001747,-34.081344610046024 26.459752960779234,-36.61649918327356 26.482676167550434,-38.96267717789071 26.428043860331062,-41.119878593897454 26.317155184849696,-43.33086240883117 26.15001014110633,-45.595628622691855 25.926608729100973,-47.9141772354795 25.64695094883362,-50.286508247194114 25.40318659309811,-52.61702757125325 25.195315661894433,-54.905735207656925 25.0233381552226,-57.15263115640512 24.887254073082605,-59.35771541749785 24.78706341547445,-61.520987990935105 24.722766182398132,-63.64244887671689 24.694362373853654,-65.7220980748432 24.701851989841014,-67.75993558531404 24.555641148972263,-69.9765656754344 24.255729851247395,-72.37198834520429 23.80211809666642,-74.9462035946237 23.194805885229336,-77.69921142369263 22.433793216936134,-80.63101183241109 21.51908009178682,-83.74160482077907 20.450666509781392,-87.03099038879658 19.228552470919855,-90.49916853646361 18.41819799723708,-93.81087413322408 18.019603088733078,-96.96610717907794 18.03276774540784,-99.96486767402524 18.45769196726136,-102.80715561806593 19.55337106461473,-105.77002072875187 21.319805037467937,-108.85346300608305 24.533979816784207,-112.88863160271484 31.526853195453203,-120.36897397661345" stroke="#CCC5B8" stroke-width="1.9" stroke-linejoin="round" stroke-linecap="round"/></g><g fill="none"><polyline points="-23.345153114829564,11.558480589928909 -30.905660153976932,18.26762101085479 -34.906606677638294,21.68467313649213 -37.86816169886279,24.046017107149567 -40.63038155533344,26.09711296959663 -43.193266247050275,27.837960723833326 -45.83683455324094,29.51704705211617 -48.56108647390545,31.134371954445157 -51.3660220090438,32.68993543082029 -54.25164115865601,34.18373748124158 -57.09416440100025,35.31038695402112 -59.893591736076544,36.06988384915891 -62.64992316388488,36.46222816665497 -65.36315868442526,36.48741990650929 -68.03329829769768,36.145459068721856 -70.66034200370216,35.43634565329269 -73.24428980243866,34.36007966022178 -75.78514169390724,32.91666108950913 -78.51820719061864,32.10433962404834 -81.4434862925729,31.923115263839424 -84.56097899977001,32.37298800888237 -87.87068531221001,33.453957859177194 -91.88242532156926,35.61669459863667 -96.5961990278478,38.861198227260786 -103.54146670607489,44.539478096787924 -117.30660918133835,56.707562262433136" stroke="#67635C" stroke-width="2.1" stroke-linejoin="round" stroke-linecap="butt"/><polyline points="-23.345153114829564,11.558480589928909 -30.905660153976932,18.26762101085479 -34.906606677638294,21.68467313649213 -37.86816169886279,24.046017107149567 -40.63038155533344,26.09711296959663 -43.193266247050275,27.837960723833326 -45.83683455324094,29.51704705211617 -48.56108647390545,31.134371954445157 -51.3660220090438,32.68993543082029 -54.25164115865601,34.18373748124158 -57.09416440100025,35.31038695402112 -59.893591736076544,36.06988384915891 -62.64992316388488,36.46222816665497 -65.36315868442526,36.48741990650929 -68.03329829769768,36.145459068721856 -70.66034200370216,35.43634565329269 -73.24428980243866,34.36007966022178 -75.78514169390724,32.91666108950913 -78.51820719061864,32.10433962404834 -81.4434862925729,31.923115263839424 -84.56097899977001,32.37298800888237 -87.87068531221001,33.453957859177194 -91.88242532156926,35.61669459863667 -96.5961990278478,38.861198227260786 -103.54146670607489,44.539478096787924 -117.30660918133835,56.707562262433136" stroke="#CCC5B8" stroke-width="1.9" stroke-linejoin="round" stroke-linecap="round"/></g><g fill="none"><polyline points="-22.182829523403644,-15.316024454665722 -25.783277978753045,-27.64326955494074 -30.063688804751955,-31.11102413656 -32.394886038321886,-32.71688767009586 -34.203673288129146,-33.6167783494214 -35.965651757062496,-34.19600223916098 -37.68082144512194,-34.454559339314606 -39.50771608660374,-34.52088500475706 -41.44633568150789,-34.394979235488364 -43.49668022983439,-34.076842031508484 -45.65874973158324,-33.566473392817436 -47.7970927666169,-33.14382007556059 -49.91170933493538,-32.808882079737955 -52.00259943653867,-32.561659405349516 -54.06976307142676,-32.40215205239528 -56.11320023959968,-32.33036002087525 -58.132910941057396,-32.34628331078941 -60.12889517579993,-32.44992192213778 -62.10115294382728,-32.64127585492035 -63.916373212485496,-32.935911064567904 -65.5745559817746,-33.33382755108044 -67.07570125169455,-33.83502531445795 -68.4198090222454,-34.43950435470043 -69.60687929342711,-35.1472646718079 -70.63691206523968,-35.958306265780365 -71.50990733768315,-36.872629136617796 -72.22586511075748,-37.89023328432021 -73.34965552890145,-39.133110306867195 -74.88127859211508,-40.601260204258736 -76.82073430039833,-42.294682976494855 -79.16802265375125,-44.21337862357552 -82.42047101887773,-46.70982053880814 -86.5780793957778,-49.78400872219269 -93.13282988456326,-54.493363353651276 -106.56066878556952,-64.0101449729502" stroke="#67635C" stroke-width="2.1" stroke-linejoin="round" stroke-linecap="butt"/><polyline points="-22.182829523403644,-15.316024454665722 -25.783277978753045,-27.64326955494074 -30.063688804751955,-31.11102413656 -32.394886038321886,-32.71688767009586 -34.203673288129146,-33.6167783494214 -35.965651757062496,-34.19600223916098 -37.68082144512194,-34.454559339314606 -39.50771608660374,-34.52088500475706 -41.44633568150789,-34.394979235488364 -43.49668022983439,-34.076842031508484 -45.65874973158324,-33.566473392817436 -47.7970927666169,-33.14382007556059 -49.91170933493538,-32.808882079737955 -52.00259943653867,-32.561659405349516 -54.06976307142676,-32.40215205239528 -56.11320023959968,-32.33036002087525 -58.132910941057396,-32.34628331078941 -60.12889517579993,-32.44992192213778 -62.10115294382728,-32.64127585492035 -63.916373212485496,-32.935911064567904 -65.5745559817746,-33.33382755108044 -67.07570125169455,-33.83502531445795 -68.4198090222454,-34.43950435470043 -69.60687929342711,-35.1472646718079 -70.63691206523968,-35.958306265780365 -71.50990733768315,-36.872629136617796 -72.22586511075748,-37.89023328432021 -73.34965552890145,-39.133110306867195 -74.88127859211508,-40.601260204258736 -76.82073430039833,-42.294682976494855 -79.16802265375125,-44.21337862357552 -82.42047101887773,-46.70982053880814 -86.5780793957778,-49.78400872219269 -93.13282988456326,-54.493363353651276 -106.56066878556952,-64.0101449729502" stroke="#CCC5B8" stroke-width="1.9" stroke-linejoin="round" stroke-linecap="round"/></g><g fill="none"><polyline points="-106.56066878556952,-64.0101449729502 -99.85274435139358,-68.50971239098234 -96.3745613114505,-70.84282142255456 -93.8901448543483,-72.50932787367759 -91.65417004295634,-74.0091836796883 -89.66663687727457,-75.34238884058672 -87.67910371159282,-76.67559400148514 -85.69157054591106,-78.00879916238355 -83.7040373802293,-79.34200432328197 -81.71650421454754,-80.67520948418037 -79.81510602602143,-81.82167371096446 -77.99984281465095,-82.7813970036342 -76.27071458043613,-83.55437936218962 -74.62772132337693,-84.14062078663069 -73.0708630434734,-84.54012127695744 -71.60013974072551,-84.75288083316985 -70.21555141513325,-84.77889945526793 -68.91709806669664,-84.61817714325169 -67.61864471826001,-84.45745483123542 -66.32019136982342,-84.29673251921918 -65.0217380213868,-84.13601020720292 -63.72328467295019,-83.97528789518667 -62.42483132451358,-83.8145655831704 -61.126377976076974,-83.65384327115416 -59.82792462764036,-83.4931209591379 -58.52947127920375,-83.33239864712165 -57.31090125052858,-83.06087697988065 -56.17221454161487,-82.6785559574149 -55.11341115246261,-82.1854355797244 -54.134491083071794,-81.58151584680917 -53.23545433344243,-80.86679675866918 -52.416300903574516,-80.04127831530445 -51.677030793468056,-79.10496051671498 -51.017644003123046,-78.05784336290074 -50.35825721277803,-77.01072620908653 -49.69887042243302,-75.9636090552723 -49.039483632088,-74.91649190145807 -48.38009684174299,-73.86937474764386 -47.72071005139797,-72.82225759382962 -47.06132326105296,-71.7751404400154 -46.401936470707945,-70.72802328620118 -45.74254968036293,-69.68090613238695 -45.05702178414353,-68.68947458460433 -44.34535278204975,-67.7537286428533 -43.607542674081586,-66.87366830713387 -42.84359146023903,-66.04929357744602 -42.053499140522106,-65.28060445378979 -41.237265714930786,-64.56760093616515 -40.39489118346509,-63.91028302457212 -39.526375546125,-63.30865071901067 -38.65785990878492,-62.707018413449234 -37.78934427144484,-62.10538610788779 -36.92082863410476,-61.50375380232635 -36.05231299676468,-60.90212149676491 -35.183797359424595,-60.30048919120347 -34.315281722084514,-59.69885688564203 -33.44676608474443,-59.097224580080585 -32.57825044740434,-58.49559227451915 -31.658724159554406,-57.95274783241317 -30.68818722119461,-57.468691253762664 -29.666639632324962,-57.043422538567626 -28.594081392945455,-56.67694168682805 -27.470512503056096,-56.36924869854395 -26.29593296265688,-56.12034357371531 -25.07034277174781,-55.930226312342135 -23.793741930328892,-55.79889691442443 -22.517141088909966,-55.66756751650672 -21.24054024749104,-55.536238118589026 -19.963939406072114,-55.404908720671315 -18.68733856465319,-55.27357932275362 -17.410737723234263,-55.14224992483591 -16.134136881815337,-55.01092052691821 -14.857536040396411,-54.8795911290005 -13.580935198977489,-54.7482617310828 -12.364169757172792,-54.52274411385556 -11.207239714982329,-54.20303827731879 -10.110145072406093,-53.78914422147248 -9.072885829444086,-53.28106194631665 -8.09546198609631,-52.678791451851275 -7.177873542362767,-51.982332738076366 -6.320120498243453,-51.19168580499193 -5.522202853738367,-50.30685065259796 -4.724285209233283,-49.42201550020398 -3.9263675647281984,-48.53718034781001 -3.128449920223114,-47.65234519541603 -2.3305322757180296,-46.76751004302207 -1.5326146312129447,-45.882674890628095 -0.7346969867078601,-44.99783973823412 0.06322065779722452,-44.113004585840145 0.861138302302309,-43.228169433446176 1.740969060790872,-42.449874396151536 2.7027129332629136,-41.778119473956224 3.7463699197184335,-41.212904666860254 4.871940020157432,-40.75422997486361 6.0794232345799095,-40.402095397966306 7.368819562985864,-40.156500936168335 8.740129005375298,-40.01744658946969 10.193351561748212,-39.984932357870385 11.646574118121123,-39.95241812627108 13.099796674494037,-39.91990389467177 14.55301923086695,-39.88738966307246 16.006241787239862,-39.854875431473154 17.64111716315939,-39.818296920923935 19.457645358625527,-39.777654131424796 22.000784832278125,-39.72075422612601 26.905410960036704,-39.61101869447835 31.72863105840983,-39.468218937694125 34.22955999830701,-39.39417461936156 36.01593781251927,-39.34128582055258 37.62367784531031,-39.2936859016245 39.05278009668014,-39.25137486257732 40.48188234804995,-39.209063823530144 41.91098459941976,-39.16675278448295 43.340086850789575,-39.124441745435774 44.769189102159395,-39.0821307063886 46.05214816566655,-38.922678954281565 47.18896404131105,-38.64608648911467 48.1796367290929,-38.25235331088793 49.024166229012096,-37.74147941960134 49.72255254106863,-37.11346481525489 50.27479566526251,-36.36830949784859 50.68089560159373,-35.50601346738244 50.9408523500623,-34.52657672385644 51.20080909853087,-33.54713998033043 51.460765846999436,-32.56770323680442 51.720722595468004,-31.58826649327841 51.98067934393657,-30.60882974975241 52.24063609240514,-29.6293930062264 52.50059284087371,-28.6499562627004 52.760549589342276,-27.67051951917439 53.020506337810836,-26.691082775648386 53.19486759377141,-25.72653421831507 53.283633357224005,-24.776873847174443 53.2868036281686,-23.84210166222651 53.2043784066052,-22.922217663471265 53.03635769253381,-22.017221850908715 52.782741485954446,-21.12711422453885 52.443529786867074,-20.251894784361678 52.01872259527172,-19.391563530377198 51.59391540367636,-18.531232276392714 51.169108212081,-17.670901022408238 50.74430102048565,-16.810569768423754 50.31949382889029,-15.950238514439274 49.841585738345515,-14.982365853706732 49.310576748851325,-13.906951786226129 48.567164163559454,-12.401372091753288 47.13343989192512,-9.497754109555663 46.83425552577186,-6.024570902681336 46.679122891470165,-4.223661091709462 46.56831386696895,-2.937296941015267 46.46858574491786,-1.779569205390491 46.3799385253169,-0.7504778848351348 46.29129130571593,0.27861343572022146 46.202644086114965,1.3077047562755777 46.11399686651399,2.336796076830934 46.02534964691303,3.36588739738629 46.11977772549143,4.343877670773312 46.39728110224922,5.270766896992001 46.85785977718637,6.146555076042355 47.50151375030289,6.971242207924375 48.328243021598794,7.744828292638061 49.338047591074066,8.467313330183414 50.53092745872872,9.138697320560432 51.90688262456274,9.758980263769116 53.28283779039677,10.3792632069778 54.65879295623078,10.999546150186486 56.03474812206481,11.619829093395168 57.410703287898826,12.240112036603854 58.786658453732855,12.860394979812538 60.16261361956687,13.480677923021222 61.5385687854009,14.100960866229908 62.91452395123492,14.72124380943859 64.40283730710503,15.328326236863798 66.00350885301124,15.92220814850553 67.71653858895354,16.502889544363782 69.54192651493194,17.070370424438554 71.47967263094642,17.624650788729852 73.52977693699701,18.165730637237672 75.69223943308367,18.69360996996202 77.96706011920645,19.208288786902884 80.2418808053292,19.722967603843752 82.51670149145198,20.237646420784618 84.79152217757473,20.752325237725483 87.06634286369751,21.267004054666348 89.34116354982027,21.781682871607213 91.61598423594305,22.296361688548078 93.8908049220658,22.811040505488947 96.16562560818858,23.325719322429812 98.43605029644131,23.72633914173779 100.702078986824,24.012899963412877 102.96371167933668,24.18540178745507 105.22094837397933,24.243844613864383 107.47378907075193,24.1882284426408 109.72223376965454,24.018553273784324 111.96628247068708,23.73481910729496 114.20593517384961,23.33702594317271 116.44558787701213,22.939232779050457 118.68524058017465,22.5414396149282 120.92489328333718,22.143646450805953 123.16454598649969,21.745853286683698 125.68415527755754,21.298335977046165 128.48372115651068,20.80109452189335 132.4031133870451,20.10495648467941 139.96194126021862,18.762404555766807" stroke="#99948A" stroke-width="4.916398284712991" stroke-linejoin="round" stroke-linecap="butt"/><polyline points="-106.56066878556952,-64.0101449729502 -99.85274435139358,-68.50971239098234 -96.3745613114505,-70.84282142255456 -93.8901448543483,-72.50932787367759 -91.65417004295634,-74.0091836796883 -89.66663687727457,-75.34238884058672 -87.67910371159282,-76.67559400148514 -85.69157054591106,-78.00879916238355 -83.7040373802293,-79.34200432328197 -81.71650421454754,-80.67520948418037 -79.81510602602143,-81.82167371096446 -77.99984281465095,-82.7813970036342 -76.27071458043613,-83.55437936218962 -74.62772132337693,-84.14062078663069 -73.0708630434734,-84.54012127695744 -71.60013974072551,-84.75288083316985 -70.21555141513325,-84.77889945526793 -68.91709806669664,-84.61817714325169 -67.61864471826001,-84.45745483123542 -66.32019136982342,-84.29673251921918 -65.0217380213868,-84.13601020720292 -63.72328467295019,-83.97528789518667 -62.42483132451358,-83.8145655831704 -61.126377976076974,-83.65384327115416 -59.82792462764036,-83.4931209591379 -58.52947127920375,-83.33239864712165 -57.31090125052858,-83.06087697988065 -56.17221454161487,-82.6785559574149 -55.11341115246261,-82.1854355797244 -54.134491083071794,-81.58151584680917 -53.23545433344243,-80.86679675866918 -52.416300903574516,-80.04127831530445 -51.677030793468056,-79.10496051671498 -51.017644003123046,-78.05784336290074 -50.35825721277803,-77.01072620908653 -49.69887042243302,-75.9636090552723 -49.039483632088,-74.91649190145807 -48.38009684174299,-73.86937474764386 -47.72071005139797,-72.82225759382962 -47.06132326105296,-71.7751404400154 -46.401936470707945,-70.72802328620118 -45.74254968036293,-69.68090613238695 -45.05702178414353,-68.68947458460433 -44.34535278204975,-67.7537286428533 -43.607542674081586,-66.87366830713387 -42.84359146023903,-66.04929357744602 -42.053499140522106,-65.28060445378979 -41.237265714930786,-64.56760093616515 -40.39489118346509,-63.91028302457212 -39.526375546125,-63.30865071901067 -38.65785990878492,-62.707018413449234 -37.78934427144484,-62.10538610788779 -36.92082863410476,-61.50375380232635 -36.05231299676468,-60.90212149676491 -35.183797359424595,-60.30048919120347 -34.315281722084514,-59.69885688564203 -33.44676608474443,-59.097224580080585 -32.57825044740434,-58.49559227451915 -31.658724159554406,-57.95274783241317 -30.68818722119461,-57.468691253762664 -29.666639632324962,-57.043422538567626 -28.594081392945455,-56.67694168682805 -27.470512503056096,-56.36924869854395 -26.29593296265688,-56.12034357371531 -25.07034277174781,-55.930226312342135 -23.793741930328892,-55.79889691442443 -22.517141088909966,-55.66756751650672 -21.24054024749104,-55.536238118589026 -19.963939406072114,-55.404908720671315 -18.68733856465319,-55.27357932275362 -17.410737723234263,-55.14224992483591 -16.134136881815337,-55.01092052691821 -14.857536040396411,-54.8795911290005 -13.580935198977489,-54.7482617310828 -12.364169757172792,-54.52274411385556 -11.207239714982329,-54.20303827731879 -10.110145072406093,-53.78914422147248 -9.072885829444086,-53.28106194631665 -8.09546198609631,-52.678791451851275 -7.177873542362767,-51.982332738076366 -6.320120498243453,-51.19168580499193 -5.522202853738367,-50.30685065259796 -4.724285209233283,-49.42201550020398 -3.9263675647281984,-48.53718034781001 -3.128449920223114,-47.65234519541603 -2.3305322757180296,-46.76751004302207 -1.5326146312129447,-45.882674890628095 -0.7346969867078601,-44.99783973823412 0.06322065779722452,-44.113004585840145 0.861138302302309,-43.228169433446176 1.740969060790872,-42.449874396151536 2.7027129332629136,-41.778119473956224 3.7463699197184335,-41.212904666860254 4.871940020157432,-40.75422997486361 6.0794232345799095,-40.402095397966306 7.368819562985864,-40.156500936168335 8.740129005375298,-40.01744658946969 10.193351561748212,-39.984932357870385 11.646574118121123,-39.95241812627108 13.099796674494037,-39.91990389467177 14.55301923086695,-39.88738966307246 16.006241787239862,-39.854875431473154 17.64111716315939,-39.818296920923935 19.457645358625527,-39.777654131424796 22.000784832278125,-39.72075422612601 26.905410960036704,-39.61101869447835 31.72863105840983,-39.468218937694125 34.22955999830701,-39.39417461936156 36.01593781251927,-39.34128582055258 37.62367784531031,-39.2936859016245 39.05278009668014,-39.25137486257732 40.48188234804995,-39.209063823530144 41.91098459941976,-39.16675278448295 43.340086850789575,-39.124441745435774 44.769189102159395,-39.0821307063886 46.05214816566655,-38.922678954281565 47.18896404131105,-38.64608648911467 48.1796367290929,-38.25235331088793 49.024166229012096,-37.74147941960134 49.72255254106863,-37.11346481525489 50.27479566526251,-36.36830949784859 50.68089560159373,-35.50601346738244 50.9408523500623,-34.52657672385644 51.20080909853087,-33.54713998033043 51.460765846999436,-32.56770323680442 51.720722595468004,-31.58826649327841 51.98067934393657,-30.60882974975241 52.24063609240514,-29.6293930062264 52.50059284087371,-28.6499562627004 52.760549589342276,-27.67051951917439 53.020506337810836,-26.691082775648386 53.19486759377141,-25.72653421831507 53.283633357224005,-24.776873847174443 53.2868036281686,-23.84210166222651 53.2043784066052,-22.922217663471265 53.03635769253381,-22.017221850908715 52.782741485954446,-21.12711422453885 52.443529786867074,-20.251894784361678 52.01872259527172,-19.391563530377198 51.59391540367636,-18.531232276392714 51.169108212081,-17.670901022408238 50.74430102048565,-16.810569768423754 50.31949382889029,-15.950238514439274 49.841585738345515,-14.982365853706732 49.310576748851325,-13.906951786226129 48.567164163559454,-12.401372091753288 47.13343989192512,-9.497754109555663 46.83425552577186,-6.024570902681336 46.679122891470165,-4.223661091709462 46.56831386696895,-2.937296941015267 46.46858574491786,-1.779569205390491 46.3799385253169,-0.7504778848351348 46.29129130571593,0.27861343572022146 46.202644086114965,1.3077047562755777 46.11399686651399,2.336796076830934 46.02534964691303,3.36588739738629 46.11977772549143,4.343877670773312 46.39728110224922,5.270766896992001 46.85785977718637,6.146555076042355 47.50151375030289,6.971242207924375 48.328243021598794,7.744828292638061 49.338047591074066,8.467313330183414 50.53092745872872,9.138697320560432 51.90688262456274,9.758980263769116 53.28283779039677,10.3792632069778 54.65879295623078,10.999546150186486 56.03474812206481,11.619829093395168 57.410703287898826,12.240112036603854 58.786658453732855,12.860394979812538 60.16261361956687,13.480677923021222 61.5385687854009,14.100960866229908 62.91452395123492,14.72124380943859 64.40283730710503,15.328326236863798 66.00350885301124,15.92220814850553 67.71653858895354,16.502889544363782 69.54192651493194,17.070370424438554 71.47967263094642,17.624650788729852 73.52977693699701,18.165730637237672 75.69223943308367,18.69360996996202 77.96706011920645,19.208288786902884 80.2418808053292,19.722967603843752 82.51670149145198,20.237646420784618 84.79152217757473,20.752325237725483 87.06634286369751,21.267004054666348 89.34116354982027,21.781682871607213 91.61598423594305,22.296361688548078 93.8908049220658,22.811040505488947 96.16562560818858,23.325719322429812 98.43605029644131,23.72633914173779 100.702078986824,24.012899963412877 102.96371167933668,24.18540178745507 105.22094837397933,24.243844613864383 107.47378907075193,24.1882284426408 109.72223376965454,24.018553273784324 111.96628247068708,23.73481910729496 114.20593517384961,23.33702594317271 116.44558787701213,22.939232779050457 118.68524058017465,22.5414396149282 120.92489328333718,22.143646450805953 123.16454598649969,21.745853286683698 125.68415527755754,21.298335977046165 128.48372115651068,20.80109452189335 132.4031133870451,20.10495648467941 139.96194126021862,18.762404555766807" stroke="#67635C" stroke-width="4.716398284712991" stroke-linejoin="round" stroke-linecap="round"/><polyline points="-106.56066878556952,-64.0101449729502 -99.85274435139358,-68.50971239098234 -96.3745613114505,-70.84282142255456 -93.8901448543483,-72.50932787367759 -91.65417004295634,-74.0091836796883 -89.66663687727457,-75.34238884058672 -87.67910371159282,-76.67559400148514 -85.69157054591106,-78.00879916238355 -83.7040373802293,-79.34200432328197 -81.71650421454754,-80.67520948418037 -79.81510602602143,-81.82167371096446 -77.99984281465095,-82.7813970036342 -76.27071458043613,-83.55437936218962 -74.62772132337693,-84.14062078663069 -73.0708630434734,-84.54012127695744 -71.60013974072551,-84.75288083316985 -70.21555141513325,-84.77889945526793 -68.91709806669664,-84.61817714325169 -67.61864471826001,-84.45745483123542 -66.32019136982342,-84.29673251921918 -65.0217380213868,-84.13601020720292 -63.72328467295019,-83.97528789518667 -62.42483132451358,-83.8145655831704 -61.126377976076974,-83.65384327115416 -59.82792462764036,-83.4931209591379 -58.52947127920375,-83.33239864712165 -57.31090125052858,-83.06087697988065 -56.17221454161487,-82.6785559574149 -55.11341115246261,-82.1854355797244 -54.134491083071794,-81.58151584680917 -53.23545433344243,-80.86679675866918 -52.416300903574516,-80.04127831530445 -51.677030793468056,-79.10496051671498 -51.017644003123046,-78.05784336290074 -50.35825721277803,-77.01072620908653 -49.69887042243302,-75.9636090552723 -49.039483632088,-74.91649190145807 -48.38009684174299,-73.86937474764386 -47.72071005139797,-72.82225759382962 -47.06132326105296,-71.7751404400154 -46.401936470707945,-70.72802328620118 -45.74254968036293,-69.68090613238695 -45.05702178414353,-68.68947458460433 -44.34535278204975,-67.7537286428533 -43.607542674081586,-66.87366830713387 -42.84359146023903,-66.04929357744602 -42.053499140522106,-65.28060445378979 -41.237265714930786,-64.56760093616515 -40.39489118346509,-63.91028302457212 -39.526375546125,-63.30865071901067 -38.65785990878492,-62.707018413449234 -37.78934427144484,-62.10538610788779 -36.92082863410476,-61.50375380232635 -36.05231299676468,-60.90212149676491 -35.183797359424595,-60.30048919120347 -34.315281722084514,-59.69885688564203 -33.44676608474443,-59.097224580080585 -32.57825044740434,-58.49559227451915 -31.658724159554406,-57.95274783241317 -30.68818722119461,-57.468691253762664 -29.666639632324962,-57.043422538567626 -28.594081392945455,-56.67694168682805 -27.470512503056096,-56.36924869854395 -26.29593296265688,-56.12034357371531 -25.07034277174781,-55.930226312342135 -23.793741930328892,-55.79889691442443 -22.517141088909966,-55.66756751650672 -21.24054024749104,-55.536238118589026 -19.963939406072114,-55.404908720671315 -18.68733856465319,-55.27357932275362 -17.410737723234263,-55.14224992483591 -16.134136881815337,-55.01092052691821 -14.857536040396411,-54.8795911290005 -13.580935198977489,-54.7482617310828 -12.364169757172792,-54.52274411385556 -11.207239714982329,-54.20303827731879 -10.110145072406093,-53.78914422147248 -9.072885829444086,-53.28106194631665 -8.09546198609631,-52.678791451851275 -7.177873542362767,-51.982332738076366 -6.320120498243453,-51.19168580499193 -5.522202853738367,-50.30685065259796 -4.724285209233283,-49.42201550020398 -3.9263675647281984,-48.53718034781001 -3.128449920223114,-47.65234519541603 -2.3305322757180296,-46.76751004302207 -1.5326146312129447,-45.882674890628095 -0.7346969867078601,-44.99783973823412 0.06322065779722452,-44.113004585840145 0.861138302302309,-43.228169433446176 1.740969060790872,-42.449874396151536 2.7027129332629136,-41.778119473956224 3.7463699197184335,-41.212904666860254 4.871940020157432,-40.75422997486361 6.0794232345799095,-40.402095397966306 7.368819562985864,-40.156500936168335 8.740129005375298,-40.01744658946969 10.193351561748212,-39.984932357870385 11.646574118121123,-39.95241812627108 13.099796674494037,-39.91990389467177 14.55301923086695,-39.88738966307246 16.006241787239862,-39.854875431473154 17.64111716315939,-39.818296920923935 19.457645358625527,-39.777654131424796 22.000784832278125,-39.72075422612601 26.905410960036704,-39.61101869447835 31.72863105840983,-39.468218937694125 34.22955999830701,-39.39417461936156 36.01593781251927,-39.34128582055258 37.62367784531031,-39.2936859016245 39.05278009668014,-39.25137486257732 40.48188234804995,-39.209063823530144 41.91098459941976,-39.16675278448295 43.340086850789575,-39.124441745435774 44.769189102159395,-39.0821307063886 46.05214816566655,-38.922678954281565 47.18896404131105,-38.64608648911467 48.1796367290929,-38.25235331088793 49.024166229012096,-37.74147941960134 49.72255254106863,-37.11346481525489 50.27479566526251,-36.36830949784859 50.68089560159373,-35.50601346738244 50.9408523500623,-34.52657672385644 51.20080909853087,-33.54713998033043 51.460765846999436,-32.56770323680442 51.720722595468004,-31.58826649327841 51.98067934393657,-30.60882974975241 52.24063609240514,-29.6293930062264 52.50059284087371,-28.6499562627004 52.760549589342276,-27.67051951917439 53.020506337810836,-26.691082775648386 53.19486759377141,-25.72653421831507 53.283633357224005,-24.776873847174443 53.2868036281686,-23.84210166222651 53.2043784066052,-22.922217663471265 53.03635769253381,-22.017221850908715 52.782741485954446,-21.12711422453885 52.443529786867074,-20.251894784361678 52.01872259527172,-19.391563530377198 51.59391540367636,-18.531232276392714 51.169108212081,-17.670901022408238 50.74430102048565,-16.810569768423754 50.31949382889029,-15.950238514439274 49.841585738345515,-14.982365853706732 49.310576748851325,-13.906951786226129 48.567164163559454,-12.401372091753288 47.13343989192512,-9.497754109555663 46.83425552577186,-6.024570902681336 46.679122891470165,-4.223661091709462 46.56831386696895,-2.937296941015267 46.46858574491786,-1.779569205390491 46.3799385253169,-0.7504778848351348 46.29129130571593,0.27861343572022146 46.202644086114965,1.3077047562755777 46.11399686651399,2.336796076830934 46.02534964691303,3.36588739738629 46.11977772549143,4.343877670773312 46.39728110224922,5.270766896992001 46.85785977718637,6.146555076042355 47.50151375030289,6.971242207924375 48.328243021598794,7.744828292638061 49.338047591074066,8.467313330183414 50.53092745872872,9.138697320560432 51.90688262456274,9.758980263769116 53.28283779039677,10.3792632069778 54.65879295623078,10.999546150186486 56.03474812206481,11.619829093395168 57.410703287898826,12.240112036603854 58.786658453732855,12.860394979812538 60.16261361956687,13.480677923021222 61.5385687854009,14.100960866229908 62.91452395123492,14.72124380943859 64.40283730710503,15.328326236863798 66.00350885301124,15.92220814850553 67.71653858895354,16.502889544363782 69.54192651493194,17.070370424438554 71.47967263094642,17.624650788729852 73.52977693699701,18.165730637237672 75.69223943308367,18.69360996996202 77.96706011920645,19.208288786902884 80.2418808053292,19.722967603843752 82.51670149145198,20.237646420784618 84.79152217757473,20.752325237725483 87.06634286369751,21.267004054666348 89.34116354982027,21.781682871607213 91.61598423594305,22.296361688548078 93.8908049220658,22.811040505488947 96.16562560818858,23.325719322429812 98.43605029644131,23.72633914173779 100.702078986824,24.012899963412877 102.96371167933668,24.18540178745507 105.22094837397933,24.243844613864383 107.47378907075193,24.1882284426408 109.72223376965454,24.018553273784324 111.96628247068708,23.73481910729496 114.20593517384961,23.33702594317271 116.44558787701213,22.939232779050457 118.68524058017465,22.5414396149282 120.92489328333718,22.143646450805953 123.16454598649969,21.745853286683698 125.68415527755754,21.298335977046165 128.48372115651068,20.80109452189335 132.4031133870451,20.10495648467941 139.96194126021862,18.762404555766807" stroke="#CCC5B8" stroke-width="2.9498389708277943" stroke-linejoin="round" stroke-linecap="butt"/><polyline points="-106.56066878556952,-64.0101449729502 -99.85274435139358,-68.50971239098234 -96.3745613114505,-70.84282142255456 -93.8901448543483,-72.50932787367759 -91.65417004295634,-74.0091836796883 -89.66663687727457,-75.34238884058672 -87.67910371159282,-76.67559400148514 -85.69157054591106,-78.00879916238355 -83.7040373802293,-79.34200432328197 -81.71650421454754,-80.67520948418037 -79.81510602602143,-81.82167371096446 -77.99984281465095,-82.7813970036342 -76.27071458043613,-83.55437936218962 -74.62772132337693,-84.14062078663069 -73.0708630434734,-84.54012127695744 -71.60013974072551,-84.75288083316985 -70.21555141513325,-84.77889945526793 -68.91709806669664,-84.61817714325169 -67.61864471826001,-84.45745483123542 -66.32019136982342,-84.29673251921918 -65.0217380213868,-84.13601020720292 -63.72328467295019,-83.97528789518667 -62.42483132451358,-83.8145655831704 -61.126377976076974,-83.65384327115416 -59.82792462764036,-83.4931209591379 -58.52947127920375,-83.33239864712165 -57.31090125052858,-83.06087697988065 -56.17221454161487,-82.6785559574149 -55.11341115246261,-82.1854355797244 -54.134491083071794,-81.58151584680917 -53.23545433344243,-80.86679675866918 -52.416300903574516,-80.04127831530445 -51.677030793468056,-79.10496051671498 -51.017644003123046,-78.05784336290074 -50.35825721277803,-77.01072620908653 -49.69887042243302,-75.9636090552723 -49.039483632088,-74.91649190145807 -48.38009684174299,-73.86937474764386 -47.72071005139797,-72.82225759382962 -47.06132326105296,-71.7751404400154 -46.401936470707945,-70.72802328620118 -45.74254968036293,-69.68090613238695 -45.05702178414353,-68.68947458460433 -44.34535278204975,-67.7537286428533 -43.607542674081586,-66.87366830713387 -42.84359146023903,-66.04929357744602 -42.053499140522106,-65.28060445378979 -41.237265714930786,-64.56760093616515 -40.39489118346509,-63.91028302457212 -39.526375546125,-63.30865071901067 -38.65785990878492,-62.707018413449234 -37.78934427144484,-62.10538610788779 -36.92082863410476,-61.50375380232635 -36.05231299676468,-60.90212149676491 -35.183797359424595,-60.30048919120347 -34.315281722084514,-59.69885688564203 -33.44676608474443,-59.097224580080585 -32.57825044740434,-58.49559227451915 -31.658724159554406,-57.95274783241317 -30.68818722119461,-57.468691253762664 -29.666639632324962,-57.043422538567626 -28.594081392945455,-56.67694168682805 -27.470512503056096,-56.36924869854395 -26.29593296265688,-56.12034357371531 -25.07034277174781,-55.930226312342135 -23.793741930328892,-55.79889691442443 -22.517141088909966,-55.66756751650672 -21.24054024749104,-55.536238118589026 -19.963939406072114,-55.404908720671315 -18.68733856465319,-55.27357932275362 -17.410737723234263,-55.14224992483591 -16.134136881815337,-55.01092052691821 -14.857536040396411,-54.8795911290005 -13.580935198977489,-54.7482617310828 -12.364169757172792,-54.52274411385556 -11.207239714982329,-54.20303827731879 -10.110145072406093,-53.78914422147248 -9.072885829444086,-53.28106194631665 -8.09546198609631,-52.678791451851275 -7.177873542362767,-51.982332738076366 -6.320120498243453,-51.19168580499193 -5.522202853738367,-50.30685065259796 -4.724285209233283,-49.42201550020398 -3.9263675647281984,-48.53718034781001 -3.128449920223114,-47.65234519541603 -2.3305322757180296,-46.76751004302207 -1.5326146312129447,-45.882674890628095 -0.7346969867078601,-44.99783973823412 0.06322065779722452,-44.113004585840145 0.861138302302309,-43.228169433446176 1.740969060790872,-42.449874396151536 2.7027129332629136,-41.778119473956224 3.7463699197184335,-41.212904666860254 4.871940020157432,-40.75422997486361 6.0794232345799095,-40.402095397966306 7.368819562985864,-40.156500936168335 8.740129005375298,-40.01744658946969 10.193351561748212,-39.984932357870385 11.646574118121123,-39.95241812627108 13.099796674494037,-39.91990389467177 14.55301923086695,-39.88738966307246 16.006241787239862,-39.854875431473154 17.64111716315939,-39.818296920923935 19.457645358625527,-39.777654131424796 22.000784832278125,-39.72075422612601 26.905410960036704,-39.61101869447835 31.72863105840983,-39.468218937694125 34.22955999830701,-39.39417461936156 36.01593781251927,-39.34128582055258 37.62367784531031,-39.2936859016245 39.05278009668014,-39.25137486257732 40.48188234804995,-39.209063823530144 41.91098459941976,-39.16675278448295 43.340086850789575,-39.124441745435774 44.769189102159395,-39.0821307063886 46.05214816566655,-38.922678954281565 47.18896404131105,-38.64608648911467 48.1796367290929,-38.25235331088793 49.024166229012096,-37.74147941960134 49.72255254106863,-37.11346481525489 50.27479566526251,-36.36830949784859 50.68089560159373,-35.50601346738244 50.9408523500623,-34.52657672385644 51.20080909853087,-33.54713998033043 51.460765846999436,-32.56770323680442 51.720722595468004,-31.58826649327841 51.98067934393657,-30.60882974975241 52.24063609240514,-29.6293930062264 52.50059284087371,-28.6499562627004 52.760549589342276,-27.67051951917439 53.020506337810836,-26.691082775648386 53.19486759377141,-25.72653421831507 53.283633357224005,-24.776873847174443 53.2868036281686,-23.84210166222651 53.2043784066052,-22.922217663471265 53.03635769253381,-22.017221850908715 52.782741485954446,-21.12711422453885 52.443529786867074,-20.251894784361678 52.01872259527172,-19.391563530377198 51.59391540367636,-18.531232276392714 51.169108212081,-17.670901022408238 50.74430102048565,-16.810569768423754 50.31949382889029,-15.950238514439274 49.841585738345515,-14.982365853706732 49.310576748851325,-13.906951786226129 48.567164163559454,-12.401372091753288 47.13343989192512,-9.497754109555663 46.83425552577186,-6.024570902681336 46.679122891470165,-4.223661091709462 46.56831386696895,-2.937296941015267 46.46858574491786,-1.779569205390491 46.3799385253169,-0.7504778848351348 46.29129130571593,0.27861343572022146 46.202644086114965,1.3077047562755777 46.11399686651399,2.336796076830934 46.02534964691303,3.36588739738629 46.11977772549143,4.343877670773312 46.39728110224922,5.270766896992001 46.85785977718637,6.146555076042355 47.50151375030289,6.971242207924375 48.328243021598794,7.744828292638061 49.338047591074066,8.467313330183414 50.53092745872872,9.138697320560432 51.90688262456274,9.758980263769116 53.28283779039677,10.3792632069778 54.65879295623078,10.999546150186486 56.03474812206481,11.619829093395168 57.410703287898826,12.240112036603854 58.786658453732855,12.860394979812538 60.16261361956687,13.480677923021222 61.5385687854009,14.100960866229908 62.91452395123492,14.72124380943859 64.40283730710503,15.328326236863798 66.00350885301124,15.92220814850553 67.71653858895354,16.502889544363782 69.54192651493194,17.070370424438554 71.47967263094642,17.624650788729852 73.52977693699701,18.165730637237672 75.69223943308367,18.69360996996202 77.96706011920645,19.208288786902884 80.2418808053292,19.722967603843752 82.51670149145198,20.237646420784618 84.79152217757473,20.752325237725483 87.06634286369751,21.267004054666348 89.34116354982027,21.781682871607213 91.61598423594305,22.296361688548078 93.8908049220658,22.811040505488947 96.16562560818858,23.325719322429812 98.43605029644131,23.72633914173779 100.702078986824,24.012899963412877 102.96371167933668,24.18540178745507 105.22094837397933,24.243844613864383 107.47378907075193,24.1882284426408 109.72223376965454,24.018553273784324 111.96628247068708,23.73481910729496 114.20593517384961,23.33702594317271 116.44558787701213,22.939232779050457 118.68524058017465,22.5414396149282 120.92489328333718,22.143646450805953 123.16454598649969,21.745853286683698 125.68415527755754,21.298335977046165 128.48372115651068,20.80109452189335 132.4031133870451,20.10495648467941 139.96194126021862,18.762404555766807" stroke="#67635C" stroke-width="2.8498389708277942" stroke-linejoin="round" stroke-linecap="round"/><g fill="none"><line x1="49.988108934026016" y1="-8.721992015928056" x2="44.27877084982423" y2="-10.27351620318327" stroke="#1A1917" stroke-width="1.1" stroke-linejoin="round" stroke-linecap="butt"/><line x1="49.988108934026016" y1="-8.721992015928056" x2="44.27877084982423" y2="-10.27351620318327" stroke="#CCC5B8" stroke-width="0.9" stroke-linejoin="round" stroke-linecap="round"/></g><g fill="none"><line x1="26.559087246217462" y1="-42.548875404919684" x2="26.64685824080143" y2="-36.66414023461362" stroke="#1A1917" stroke-width="2.1" stroke-linejoin="round" stroke-linecap="butt"/><line x1="26.559087246217462" y1="-42.548875404919684" x2="26.64685824080143" y2="-36.66414023461362" stroke="#CCC5B8" stroke-width="1.9" stroke-linejoin="round" stroke-linecap="round"/></g></g><g fill-rule="nonzero" fill="#99948A" stroke="#1A1917" stroke-width="0.09999999999999999"><path d="M 0.8892758557159482,-2.085978743230836 L 0.4618137344039134,-1.0539938925585481 L -0.5701711162683742,-0.6265317712465133 L -1.602155966940662,-1.0539938925585481 L -2.029618088252697,-2.085978743230836 L -1.6021559669406624,-3.1179635939031236 L -0.5701711162683746,-3.5454257152151585 L 0.46181373440391316,-3.1179635939031236 Z"/></g><g fill-rule="nonzero" fill="#99948A" stroke="#1A1917" stroke-width="0.09999999999999999"><path d="M -6.777609364041394,-3.420878029344999 L -12.712500381977161,-8.332444483231813 L 5.520923117014771,-17.281988687069983 L 11.948555683003132,-16.586514965100058 L 3.6005288134582947,-5.911831975411369 Z"/></g><g fill="#99948A" stroke="#1A1917" stroke-width="0.09999999999999999"><path d="M 11.62195942206542,19.678897343875924 L 12.062223459019323,22.625598578717813 L 8.48333371951556,22.692429209885866 L 8.114301497303934,20.19778434799771 Z M 11.419589042591577,18.32442594253948 L 11.621201477927853,19.673824399600107 L 8.116254990511743,20.197495368211225 L 7.914642555175468,18.8480969111506 Z M 10.8331074595606,14.39908601042428 L 11.28379163671987,17.41552957585219 L 11.418793148449694,18.319098997674956 L 9.674963268141466,18.57964308466535 L 7.738355186502341,18.868989992977127 L 7.603353674772516,17.965420571154365 L 7.152669497613246,14.948977005726453 L 9.089277579252371,14.659630097414675 Z M 7.732680273577219,18.869829481498964 L 6.309253430810778,19.08039667643997 L 3.4972257705454988,19.496379260671546 L 3.1396351557963786,17.07907926340531 L 2.913589612496592,15.55101932932684 L 5.6301988815547785,14.490011771590636 L 7.005325666232547,13.95293788024872 L 7.287034167533202,15.857277455552474 Z"/><path d="M 2.8235069813035296,14.942063906127322 L 2.3346968952427605,11.637724891169118 L 1.8283285333529125,8.214692548245889 L 5.437307571246677,7.680817135911214 L 7.758698562411341,7.337414317666717 L 8.26506692430119,10.760446660589945 L 8.75387701036196,14.06478567554815 L 6.432486019197295,14.408188493792647 Z M 1.828328533352912,8.214692548245885 L 1.3288526026904717,4.838252798360536 L 5.444748966099137,3.935796183748091 L 7.758698562411338,7.337414317666713 Z"/><path d="M -1.8209703435572968,9.947702556454947 L -2.454108678472087,5.667709647993307 L 0.741378059238935,4.967063205825509 L 1.4075132563554607,9.47011374393442 Z M 1.4075132563554607,9.47011374393442 L 1.8485365341548141,12.451415613298838 L -1.3799470657579436,12.929004425819366 L -1.8209703435572968,9.947702556454947 Z M -7.203633841780432,12.060713161950146 L -4.348148712978351,6.08299924874151 L -2.454108678472087,5.667709647993307 L -1.6303544554974687,11.236259265386465 Z"/></g><g fill="#99948A" stroke="#1A1917" stroke-width="0.09999999999999999"><path d="M -11.164058111351089,-0.9708357632925173 L -11.911870902582299,0.6306529847616417 L -16.20310642435713,-1.3731330657291942 L -15.455293633125923,-2.97462181378335 Z M -15.455293633125923,-2.97462181378335 L -13.760650354137116,-6.603808389741603 L -9.990620712648834,-3.483826731892536 L -11.164058111351089,-0.9708357632925173 Z M -19.238282381940387,5.126889669147004 L -17.886078255871933,2.2310583616807866 L -13.5948427340971,4.234844412171622 L -14.947046860165553,7.130675719637839 Z M -6.254945047923453,8.682716350398676 L -7.233995050413817,10.732273801278767 L -14.91542028181683,7.06294538664695 L -13.936370279326466,5.013387935766859 Z M -11.298929966436717,-0.6819990906899993 L -9.990620712648834,-3.483826731892536 L -7.868087584602627,-1.7272717290340118 L -6.611499105145217,1.5067897848764074 Z"/></g><g fill="#99948A" stroke="#1A1917" stroke-width="0.09999999999999999"><path d="M 10.640463502550428,-11.667254400811089 L 13.827092717987307,-15.742020475722365 L 16.867973383127413,-5.854222750515104 L 13.053136936977493,-4.559335382425654 Z M 9.711074314526446,-3.424923793812638 L 5.835403484656688,-2.1093871328540725 L 5.250830215596175,-4.775490913704893 L 8.041423226154938,-8.343842598056861 Z"/><path d="M 6.826628653836231,2.4113621232165308 L 6.439738644637058,0.6468460721198694 L 9.408611947248849,-0.004112823178799907 L 9.795501956448021,1.7604032279178616 Z M 16.654473800280478,7.222721079483106 L 13.958434380811559,8.83228835373735 L 11.99275677804737,10.00582102477189 L 9.581904190032374,6.461750793222214 L 12.082556447614513,5.363809761194426 L 10.265375780608583,2.003861797229077 L 14.405952565434845,0.5984068974031445 L 15.51234424768143,3.8579207494680174 Z"/></g><g fill="#99948A" stroke="#1A1917" stroke-width="0.09999999999999999"><path d="M -24.927272567155736,7.591144084357799 L -26.112175930395452,5.136678481712825 L -23.102781951864827,3.683881162967892 L -21.91787858862511,6.138346765612866 Z M -26.112175930395452,5.136678481712823 L -27.607946018322313,2.038268650008272 L -28.2945862699378,0.6159291316413658 L -25.322550637915143,-0.8188332916971444 L -22.29286705811111,-2.2814254988942704 L -21.606226806495624,-0.8590859805273641 L -20.110456718568763,2.239323851177187 L -23.140140298372796,3.701916058374313 Z M -25.276858247717346,-6.48816620175809 L -26.39350017756832,-8.062374286952995 L -28.23345644878472,-10.656289096278211 L -25.766952002963652,-12.405868653307765 L -23.65097652199492,-10.00774411208781 L -20.340465233803936,-12.356007819030546 L -18.854107056043034,-11.044052652268777 L -22.36682266380338,-8.552358211008489 Z"/></g><g fill="#99948A" stroke="#1A1917" stroke-width="0.09999999999999999"><path d="M -23.390852289886357,-23.018918923115553 L -24.71520320749481,-27.553242511577874 L -18.401770253766866,-30.231561009251603 L -16.569588062631535,-25.91267233608067 Z M -16.569588062631535,-25.91267233608067 L -14.572313562668535,-21.20462187208279 L -22.056782332882072,-18.451319207454787 L -23.390852289886357,-23.018918923115553 Z M -17.33831005606845,-27.724732690304933 L -18.401770253766866,-30.231561009251603 L -13.458560513277046,-32.32859604278549 L -11.550920704999953,-30.179890140429436 Z"/><path d="M -8.579094499984295,-11.475215592542797 L -11.573801001071638,-10.005318389174242 L -13.73386209186923,-14.406135654853077 L -10.73915559078189,-15.876032858221633 Z M -5.712423292574412,-15.343858408747836 L -5.285182615594008,-13.091972314862582 L -8.579094499984294,-11.475215592542796 L -9.552751468342233,-13.458903190756025 Z M -13.549640787491604,-20.94152081669981 L -8.031582697804524,-23.701475923380006 L -6.849799228273208,-21.338702044007135 L -12.367857317960288,-18.57874693732694 Z M -11.573801001071637,-10.00531838917424 L -13.55391311281548,-9.033416383300981 L -21.30408022063737,-15.87421151095404 L -21.88817343809787,-17.874034683632978 L -16.422846116588563,-19.884558174259617 Z"/><path d="M -0.7141604365999836,-15.33557539082324 L -4.7265052695153855,-13.366188926169286 L -6.075362794158729,-20.475702757681514 L -1.695206564385984,-20.50644102149117 Z M -1.695206564385984,-20.50644102149117 L 5.68747641362436,-20.558249871472057 L 5.922021583766732,-18.592824603472284 L -0.7141604365999836,-15.33557539082324 Z"/></g><g fill="#99948A" stroke="#1A1917" stroke-width="0.09999999999999999"/><g/><g/><g fill-rule="nonzero" stroke="#99948A" stroke-width="0.09999999999999999" stroke-linecap="butt"><line x1="-27.010908947320857" y1="37.06542000193551" x2="-20.9705186091092" y2="41.836749796979106"/><line x1="-26.55249289349138" y1="35.734180655754436" x2="-19.13154571950677" y2="41.59601811594088"/><line x1="-25.97790397694129" y1="34.4947067436328" x2="-17.734948647441136" y2="41.00585191152962"/><line x1="-25.15424514845349" y1="33.45197420505443" x2="-16.3383515753755" y2="40.41568570711836"/><line x1="-24.330586319965686" y1="32.40924166647605" x2="-14.94175450330987" y2="39.82551950270709"/><line x1="-23.50692749147789" y1="31.36650912789768" x2="-13.545157431244238" y2="39.23535329829583"/><line x1="-22.683268662990088" y1="30.32377658931931" x2="-12.518042201213515" y2="38.35333182908876"/><line x1="-21.85960983450229" y1="29.281044050740938" x2="-11.680819214087808" y2="37.32131367660632"/><line x1="-21.035951006014493" y1="28.238311512162564" x2="-11.079050888963302" y2="36.10330889390872"/><line x1="-20.212292177526695" y1="27.195578973584194" x2="-10.526500604644742" y2="34.8464265732703"/><line x1="-19.388633349038894" y1="26.15284643500582" x2="-9.973950320326184" y2="33.58954425263189"/><line x1="-18.564974520551093" y1="25.110113896427446" x2="-9.421400036007626" y2="32.33266193199348"/><line x1="-17.741315692063296" y1="24.06738135784908" x2="-8.868849751689067" y2="31.075779611355067"/><line x1="-16.9176568635755" y1="23.024648819270702" x2="-8.316299467370508" y2="29.818897290716656"/><line x1="-16.093998035087694" y1="21.98191628069233" x2="-7.763749183051949" y2="28.562014970078245"/><line x1="-15.270339206599894" y1="20.93918374211396" x2="-7.211198898733391" y2="27.305132649439834"/><line x1="-14.446680378112093" y1="19.896451203535584" x2="-6.6586486144148305" y2="26.04825032880142"/><line x1="-13.619010229485584" y1="18.856887223646904" x2="-6.150302430602578" y2="24.756451002804162"/><line x1="-12.724340957682536" y1="17.87024613363038" x2="-6.0123414426906265" y2="23.172082848984203"/><line x1="-11.48081887979315" y1="17.1591653459398" x2="-9.245914337433184" y2="18.924525866531162"/><line x1="-28.482073940771972" y1="33.95436570719582" x2="-15.27371263978063" y2="17.232893620106974"/><line x1="-30.797450763745637" y1="34.45671739061242" x2="-15.824052255429617" y2="15.500750068089811"/><line x1="-31.978871793237953" y1="33.52350793842713" x2="-17.298040686941583" y2="14.937924006771986"/><line x1="-33.16029282273027" y1="32.59029848624185" x2="-18.772029118453553" y2="14.375097945454165"/><line x1="-34.34171385222259" y1="31.65708903405657" x2="-20.24601754996552" y2="13.812271884136344"/><line x1="-35.52313488171491" y1="30.723879581871284" x2="-22.889273509944708" y2="14.72971077727101"/><line x1="-36.70455591120722" y1="29.790670129686003" x2="-29.0416463415132" y2="20.089608388900082"/><line x1="-37.05077949187005" y1="27.80012051928126" x2="-35.457301962406184" y2="25.78281576639466"/><path d="M -17.494905856327286,19.788979235429167 L -18.27860907308595,20.690847055899432 L -19.761036133188302,22.396790368509766 L -20.79637141963743,21.497106871663355 L -21.67435118028664,20.73416185128221 L -22.380738050829386,20.120327262493163 L -20.898310990727033,18.41438394988283 L -20.191924120184286,19.028218538671876 L -19.31394435953508,19.79116355905302 L -18.530241142776415,18.889295738582756 Z" fill="#99948A" stroke="#1A1917" stroke-width="0.09999999999999999"/></g><g fill-rule="nonzero" stroke="#99948A" stroke-width="0.09999999999999999" stroke-linecap="butt"><line x1="-40.4962947323424" y1="22.779963987729595" x2="-39.20337078183282" y2="22.15485063857761"/><line x1="-42.67199307523041" y1="22.256979158968793" x2="-35.30416227965781" y2="18.694720618711848"/><line x1="-43.289170930898464" y1="20.980468215153763" x2="-31.404953777482802" y2="15.234590598846083"/><line x1="-43.90634878656652" y1="19.70395727133874" x2="-27.505745275307792" y2="11.774460578980321"/><line x1="-44.523526642234565" y1="18.42744632752371" x2="-26.5212836942942" y2="9.723576020999241"/><line x1="-45.14070449790262" y1="17.15093538370868" x2="-26.181087101008806" y2="7.984185920260906"/><line x1="-45.75788235357067" y1="15.874424439893657" x2="-26.797505313695865" y2="6.707307698101458"/><line x1="-46.375060209238725" y1="14.597913496078629" x2="-27.413923526382927" y2="5.4304294759420095"/><line x1="-46.99223806490677" y1="13.321402552263601" x2="-28.030341739069986" y2="4.153551253782558"/><line x1="-47.609415920574826" y1="12.044891608448571" x2="-28.646759951757048" y2="2.876673031623106"/><line x1="-48.22659377624288" y1="10.768380664633543" x2="-29.263178164444106" y2="1.5997948094636563"/><line x1="-48.843771631910926" y1="9.491869720818519" x2="-29.879596377131165" y2="0.32291658730420636"/><line x1="-49.46094948757898" y1="8.215358777003493" x2="-30.496014589818223" y2="-0.95396163485524"/><line x1="-50.07812734324703" y1="6.938847833188461" x2="-31.112432802505285" y2="-2.2308398570146952"/><line x1="-50.615898714499636" y1="5.623944798796293" x2="-31.728851015192344" y2="-3.5077180791741434"/><line x1="-50.70815406249289" y1="4.093640067118859" x2="-32.3452692278794" y2="-4.784596301333593"/><line x1="-50.51237533578953" y1="2.424074286844929" x2="-33.33366994659528" y2="-5.881625407017188"/><line x1="-48.51644175922961" y1="-0.115844948280311" x2="-34.74215665809901" y2="-6.775547932627024"/><line x1="-46.52050818266968" y1="-2.6557641834055623" x2="-38.25148067467198" y2="-6.653740613277574"/><line x1="-44.524574606109766" y1="-5.1956834185307965" x2="-41.76080469124492" y2="-6.5319332939281285"/></g><g fill-rule="nonzero" stroke="#99948A" stroke-width="0.09999999999999999" stroke-linecap="butt"><line x1="3.066578786006104" y1="48.35220076276525" x2="8.60002553924603" y2="52.36213184826723"/><line x1="3.4983089997600314" y1="46.859537619781285" x2="10.110629354702123" y2="51.65129764224014"/><line x1="4.205802594742692" y1="45.56671233626253" x2="11.229825701247028" y2="50.65682160379355"/><line x1="5.063694649722892" y1="44.382876528354565" x2="12.261826092491392" y2="49.59915714278106"/><line x1="5.921586704703094" y1="43.1990407204466" x2="13.293826483735753" y2="48.54149268176857"/><line x1="6.779478759683295" y1="42.01520491253863" x2="14.325826874980114" y2="47.48382822075608"/><line x1="7.6373708146635" y1="40.83136910463065" x2="15.35782726622448" y2="46.42616375974358"/><line x1="8.495262869643701" y1="39.647533296722685" x2="16.389827657468842" y2="45.36849929873109"/><line x1="9.353154924623901" y1="38.46369748881472" x2="17.421828048713206" y2="44.3108348377186"/><line x1="10.211046979604102" y1="37.27986168090675" x2="18.45382843995757" y2="43.25317037670611"/><line x1="11.068939034584304" y1="36.09602587299878" x2="19.485828831201935" y2="42.195505915693616"/><line x1="11.926831089564509" y1="34.912190065090805" x2="20.517829222446295" y2="41.13784145468112"/><line x1="12.78472314454471" y1="33.728354257182836" x2="21.549829613690658" y2="40.08017699366863"/><line x1="13.642615199524915" y1="32.54451844927486" x2="22.15040442815024" y2="38.709870718507126"/><line x1="14.619423715632262" y1="31.446858010050512" x2="21.798688042317483" y2="36.64946616341432"/><line x1="16.13002753108836" y1="30.736023804023414" x2="17.352376261353484" y2="31.62182507570712"/><line x1="1.510909921713378" y1="45.36588156055102" x2="13.496420723143828" y2="28.826648238092332"/><line x1="-0.7232835144326973" y1="45.97628635535745" x2="13.1348788220695" y2="26.852914468982444"/><line x1="-1.8981528311975269" y1="45.12489206084485" x2="12.150030681652083" y2="25.73930318398139"/><line x1="-3.0730221479623534" y1="44.27349776633225" x2="11.165182541234666" y2="24.625691898980342"/><line x1="-4.2478914647271795" y1="43.42210347181964" x2="9.745199379313535" y2="24.112538931247176"/><line x1="-5.422760781492005" y1="42.57070917730704" x2="8.034146251837754" y2="24.001043777955584"/><line x1="-6.597630098256833" y1="41.719314882794436" x2="6.217715460540823" y2="24.034963016907128"/><line x1="-7.772499415021661" y1="40.867920588281834" x2="4.401284669243893" y2="24.06888225585867"/><line x1="-8.947368731786488" y1="40.01652629376923" x2="2.584853877946962" y2="24.102801494810212"/><line x1="-9.440388313826029" y1="38.22422326033728" x2="0.7684230866500315" y2="24.13672073376176"/><line x1="-7.6590468953043995" y1="33.293448461205344" x2="-1.048007704646901" y2="24.1706399727133"/><line x1="-4.895573690889969" y1="27.007395023607252" x2="-3.5390071062836395" y2="25.13542046766449"/><path d="M 16.367491352833305,32.01738007572537 L 16.445499114148344,33.641509435396486 L 16.495671024599943,34.68609360781175 L 16.546740986809084,35.74937530725938 L 15.172969527654544,35.81535825095103 L 15.121899565445405,34.7520765515034 L 14.006528808615629,34.80564837769967 L 14.057598770824768,35.8689300771473 L 13.02144826407294,35.91869691433662 L 12.970378301863802,34.85541521488899 L 12.920206391412199,33.81083104247373 L 12.842198630097162,32.186701682802614 L 13.878349136848989,32.13693484561329 L 14.993719893678765,32.08336301941702 Z" fill="#99948A" stroke="#1A1917" stroke-width="0.09999999999999999"/></g><g fill-rule="nonzero" stroke="#99948A" stroke-width="0.09999999999999999" stroke-linecap="butt"><line x1="-34.78217798524574" y1="-8.775363202784694" x2="-31.245632508206945" y2="-10.113488190508987"/><line x1="-38.63912666016154" y1="-8.641489962029148" x2="-27.240729125778074" y2="-12.954308971370605"/><line x1="-42.35287247945132" y1="-8.56180047790016" x2="-25.306692284589616" y2="-15.011574646531663"/><line x1="-43.22909628488592" y1="-9.555746023946618" x2="-25.201319034679198" y2="-16.376927702014015"/><line x1="-44.10532009032052" y1="-10.549691569993078" x2="-25.549930436368506" y2="-17.57050629275583"/><line x1="-44.5602094694809" y1="-11.70305769401499" x2="-25.89854183805781" y2="-18.764084883497652"/><line x1="-44.99892488661652" y1="-12.862543570455292" x2="-26.247153239747117" y2="-19.957663474239467"/><line x1="-45.43764030375214" y1="-14.02202944689559" x2="-26.59576464143642" y2="-21.151242064981286"/><line x1="-45.87635572088776" y1="-15.18151532333589" x2="-26.944376043125725" y2="-22.344820655723105"/><line x1="-46.315071138023384" y1="-16.34100119977619" x2="-27.292987444815033" y2="-23.538399246464923"/><line x1="-46.753786555159" y1="-17.500487076216487" x2="-27.641598846504337" y2="-24.73197783720674"/><line x1="-47.19250197229462" y1="-18.65997295265679" x2="-28.255943732368372" y2="-25.825010678556136"/><line x1="-47.63121738943024" y1="-19.81945882909709" x2="-28.97126574028594" y2="-26.87983674126078"/><line x1="-48.06993280656586" y1="-20.97894470553739" x2="-30.086507780232274" y2="-27.783344804119636"/><line x1="-48.508648223701485" y1="-22.138430581977687" x2="-31.201749820178613" y2="-28.686852866978484"/><line x1="-48.947363640837104" y1="-23.297916458417983" x2="-32.31699186012494" y2="-29.590360929837335"/><line x1="-49.38607905797272" y1="-24.457402334858283" x2="-33.43223390007128" y2="-30.493868992696186"/><line x1="-49.82479447510834" y1="-25.616888211298583" x2="-34.54747594001762" y2="-31.397377055555033"/><line x1="-50.26350989224396" y1="-26.77637408773888" x2="-35.66271797996396" y2="-32.30088511841389"/><line x1="-50.34857372279173" y1="-28.06967134255223" x2="-38.274755707968765" y2="-32.6380496336744"/><line x1="-49.94096640333679" y1="-29.549380897399534" x2="-47.58847959569184" y2="-30.4394928445071"/></g><g fill-rule="nonzero" stroke="#99948A" stroke-width="0.09999999999999999" stroke-linecap="butt"><line x1="-1.6521003476552836" y1="-40.32351355304275" x2="-2.0749022010182787" y2="-41.32015796118078"/><line x1="-2.570924565848197" y1="-38.82416564390214" x2="-5.011066521994216" y2="-44.57615990861978"/><line x1="-3.7997279878873647" y1="-38.05551235611933" x2="-7.9472308429701535" y2="-47.83216185605877"/><line x1="-5.117464354168974" y1="-37.496495144605994" x2="-10.497151047667018" y2="-50.177694666232036"/><line x1="-6.435200720450583" y1="-36.93747793309266" x2="-12.429730223669422" y2="-51.06800801776618"/><line x1="-7.752937086732191" y1="-36.37846072157932" x2="-14.093441209602574" y2="-51.32453517364557"/><line x1="-9.070673453013802" y1="-35.81944351006599" x2="-15.71928160036233" y2="-51.49179234025643"/><line x1="-10.388409819295411" y1="-35.26042629855265" x2="-17.34512199112208" y2="-51.659049506867284"/><line x1="-11.70614618557702" y1="-34.701409087039316" x2="-18.970962381881833" y2="-51.82630667347814"/><line x1="-13.02388255185863" y1="-34.14239187552598" x2="-20.596802772641585" y2="-51.993563840088996"/><line x1="-14.34161891814024" y1="-33.583374664012645" x2="-22.222643163401333" y2="-52.16082100669985"/><line x1="-15.659355284421844" y1="-33.02435745249931" x2="-23.848483554161078" y2="-52.3280781733107"/><line x1="-16.97709165070346" y1="-32.465340240985974" x2="-25.47432394492084" y2="-52.49533533992156"/><line x1="-18.294828016985065" y1="-31.906323029472638" x2="-27.10016433568059" y2="-52.66259250653241"/><line x1="-19.612564383266673" y1="-31.347305817959302" x2="-28.49173940076988" y2="-52.27763064904725"/><line x1="-20.930300749548284" y1="-30.788288606445963" x2="-29.748452584403978" y2="-51.57476729951756"/><line x1="-22.34942438231167" y1="-30.46826526733818" x2="-30.546062860053844" y2="-49.78968933251892"/><line x1="-23.87316465516042" y1="-30.394848201381585" x2="-31.20420499411216" y2="-47.675851824082585"/><line x1="-25.626358684866474" y1="-30.862308148804026" x2="-31.86234712817048" y2="-45.56201431564625"/><line x1="-27.995470659038123" y1="-32.78163300727378" x2="-32.5204892622288" y2="-43.448176807209926"/><line x1="-30.364582633209775" y1="-34.70095786574355" x2="-33.178631396287116" y2="-41.33433929877359"/><line x1="-32.733694607381416" y1="-36.620282724213304" x2="-33.65499928473424" y2="-38.792016711591955"/><path d="M -14.869661390879285,-49.448264909316585 L -14.878800075393201,-50.30178801183106 L -14.0229739323166,-50.31095135503442 L -12.160177712189997,-50.33089634178322 L -12.151039027676081,-49.47737323926875 L -11.332201936912682,-49.48614054014055 L -11.315641562359792,-47.93945597677015 L -11.303295230172044,-46.78634912233007 L -12.122132320935442,-46.77758182145827 L -13.984928541062045,-46.757636834709466 L -13.997274873249793,-47.91074368914954 L -14.013835247802684,-49.45742825251995 Z" fill="#99948A" stroke="#1A1917" stroke-width="0.09999999999999999"/></g><g/><g/><g/><g fill-rule="nonzero" stroke="#99948A" stroke-width="0.09999999999999999" stroke-linecap="butt"><line x1="-24.551414659582335" y1="56.33994110211235" x2="-29.6604101867241" y2="69.63589863711204"/><line x1="-23.18500317437634" y1="56.17790640327642" x2="-28.79378707148906" y2="70.77454328088227"/><line x1="-21.81859168917034" y1="56.015871704440485" x2="-27.888671856681665" y2="71.81301376739827"/><line x1="-20.575779760805464" y1="56.175499933351084" x2="-26.72748350784409" y2="72.18506411362804"/><line x1="-19.439414146576414" y1="56.61215045852095" x2="-25.566295159006508" y2="72.55711445985781"/><line x1="-18.303048532347365" y1="57.048800983690825" x2="-24.40510681016893" y2="72.92916480608758"/><line x1="-17.16668291811831" y1="57.4854515088607" x2="-23.243918461331354" y2="73.30121515231734"/><line x1="-16.03031730388926" y1="57.922102034030566" x2="-22.082730112493778" y2="73.67326549854711"/><line x1="-14.89395168966021" y1="58.35875255920044" x2="-20.921541763656197" y2="74.04531584477688"/><line x1="-13.757586075431158" y1="58.79540308437031" x2="-19.76035341481862" y2="74.41736619100664"/><line x1="-12.621220461202109" y1="59.23205360954018" x2="-18.59916506598104" y2="74.7894165372364"/><line x1="-11.48485484697306" y1="59.66870413471005" x2="-17.437976717143464" y2="75.16146688346618"/><line x1="-10.34848923274401" y1="60.10535465987992" x2="-16.276788368305887" y2="75.53351722969595"/><line x1="-9.21212361851496" y1="60.54200518504979" x2="-15.11560001946831" y2="75.90556757592572"/><line x1="-8.075758004285909" y1="60.97865571021966" x2="-13.95441167063073" y2="76.27761792215547"/><line x1="-6.939392390056858" y1="61.41530623538954" x2="-12.79322332179315" y2="76.64966826838524"/><line x1="-5.80302677582781" y1="61.8519567605594" x2="-11.632034972955577" y2="77.02171861461501"/><line x1="-4.666661161598759" y1="62.28860728572928" x2="-10.470846624118" y2="77.39376896084478"/><line x1="-3.5302955473697115" y1="62.725257810899144" x2="-9.309658275280421" y2="77.76581930707454"/><line x1="-2.3939299331406607" y1="63.16190833606902" x2="-8.113096526823874" y2="78.04581178856283"/><line x1="-1.2575643189116097" y1="63.598558861238885" x2="-6.779022693716443" y2="77.96793454236118"/><line x1="-0.12119870468256472" y1="64.03520938640875" x2="-5.44494886060902" y2="77.89005729615953"/><line x1="1.0151669095464917" y1="64.47185991157863" x2="-3.852378945898046" y2="77.13945428503881"/><line x1="2.15153252377554" y1="64.9085104367485" x2="-1.9449648879228594" y2="75.56948192102959"/><line x1="3.287898138004585" y1="65.34516096191837" x2="-0.037550829947678555" y2="73.99950955702039"/><line x1="4.39954061616682" y1="65.84615246478731" x2="1.8698632280275214" y2="72.42953719301116"/><line x1="5.507294054246474" y1="66.35726503969774" x2="3.7772772860027075" y2="70.85956482900194"/><line x1="6.423272634542733" y1="67.36746404986192" x2="5.750865889458058" y2="69.1173758439509"/><line x1="-21.387576899071206" y1="53.39961219274384" x2="4.734119322050223" y2="63.43692081107861"/><line x1="-22.859511216709194" y1="51.10043752087557" x2="7.022413268020234" y2="62.58262059291066"/><line x1="-22.27907986848035" y1="49.58988803672856" x2="7.229521076499729" y2="60.928620869114845"/><line x1="-21.698648520251506" y1="48.079338552581554" x2="7.436628884979225" y2="59.274621145319024"/><line x1="-21.11821717202266" y1="46.56878906843455" x2="7.643736693458724" y2="57.620621421523204"/><line x1="-20.522963619208614" y1="45.06393504298083" x2="7.850844501938219" y2="55.96662169772738"/><line x1="-19.252701909089623" y1="43.818454112498046" x2="6.2477094933069175" y2="53.61703292505605"/><line x1="-17.104059200644773" y1="42.91049265586738" x2="1.505172945934305" y2="50.06112348107463"/><line x1="-14.955416492199921" y1="42.002531199236714" x2="-3.5873093759026062" y2="46.37074674567971"/><line x1="-12.806773783755073" y1="41.09456974260605" x2="-8.679791697739509" y2="42.6803700102848"/><path d="M -8.230562822482053,43.126677049694365 L -8.143986890887774,43.95122570818209 L -7.991021053051804,45.40807143954741 L -7.845426757510486,46.79471064586457 L -9.257927047664694,46.94302030259432 L -9.40352134320601,45.556381096277164 L -10.170764052338532,45.63694001977829 L -10.025169756797215,47.02357922609544 L -11.63972449584054,47.19310418887811 L -11.785318791381856,45.806464982560954 L -11.938284629217828,44.349619251195634 L -12.024860560812106,43.525070592707905 L -10.410305821768782,43.35554562992524 L -9.643063112636261,43.274986706424116 Z" fill="#99948A" stroke="#1A1917" stroke-width="0.09999999999999999"/></g><g/><g fill-rule="nonzero" stroke="#99948A" stroke-width="0.09999999999999999" stroke-linecap="butt"><line x1="-41.925099089178254" y1="59.77076707963343" x2="-33.03936789449358" y2="68.56189266364454"/><line x1="-41.55404433357156" y1="58.193274932060206" x2="-31.907702418378406" y2="67.73691308009475"/><line x1="-40.94022904068446" y1="56.855958671345995" x2="-30.99458974488239" y2="66.69570760669227"/><line x1="-39.967986581165846" y1="55.873253434253975" x2="-30.45319291862114" y2="65.28674391249614"/><line x1="-38.99574412164725" y1="54.89054819716195" x2="-29.91179609235989" y2="63.87778021829999"/><line x1="-38.023501662128645" y1="53.90784296006992" x2="-29.370399266098637" y2="62.46881652410386"/><line x1="-37.05125920261004" y1="52.925137722977894" x2="-28.82900243983739" y2="61.05985282990772"/><line x1="-36.07901674309144" y1="51.942432485885874" x2="-28.287605613576137" y2="59.65088913571158"/><line x1="-35.10677428357283" y1="50.95972724879385" x2="-27.74620878731488" y2="58.24192544151545"/><line x1="-34.13453182405423" y1="49.97702201170182" x2="-27.20481196105363" y2="56.83296174731931"/><line x1="-33.162289364535624" y1="48.99431677460979" x2="-26.663415134792377" y2="55.42399805312317"/><line x1="-32.19004690501702" y1="48.011611537517766" x2="-26.122018308531125" y2="54.01503435892703"/><line x1="-31.217804445498416" y1="47.028906300425746" x2="-25.580621482269876" y2="52.6060706647309"/><line x1="-30.245561985979812" y1="46.046201063333726" x2="-25.039224656008624" y2="51.19710697053476"/><line x1="-29.273319526461208" y1="45.06349582624169" x2="-24.497827829747372" y2="49.788143276338616"/><line x1="-28.30107706694261" y1="44.08079058914967" x2="-23.95643100348612" y2="48.379179582142484"/><line x1="-27.328834607424" y1="43.098085352057645" x2="-23.415034177224868" y2="46.970215887946345"/><line x1="-26.213418549784137" y1="42.257029356184134" x2="-22.975195026454266" y2="45.46077579403731"/><line x1="-24.63950331891492" y1="41.86959093254099" x2="-22.604140270847573" y2="43.88328364646408"/><line x1="-59.80802898026698" y1="42.078235194731356" x2="-45.693574598526894" y2="56.0424142027456"/><line x1="-59.93437599886193" y1="40.09153298788063" x2="-43.401082107389556" y2="56.44879833079824"/><line x1="-58.72443042307161" y1="39.42689598386344" x2="-42.444882210637495" y2="55.53311725601735"/><line x1="-57.489081823745636" y1="38.78739153958978" x2="-41.51408533742107" y2="54.592303621492924"/><line x1="-56.25373322441967" y1="38.147887095316115" x2="-40.58328846420464" y2="53.6514899869685"/><line x1="-55.0183846250937" y1="37.50838265104245" x2="-39.65249159098822" y2="52.71067635244408"/><line x1="-53.783036025767736" y1="36.86887820676879" x2="-38.7216947177718" y2="51.769862717919665"/><line x1="-52.54768742644177" y1="36.22937376249513" x2="-37.790897844555374" y2="50.82904908339524"/><line x1="-51.312338827115795" y1="35.58986931822147" x2="-36.86010097133895" y2="49.888235448870816"/><line x1="-50.07699022778983" y1="34.950364873947805" x2="-35.92930409812253" y2="48.9474218143464"/><line x1="-48.84164162846386" y1="34.31086042967414" x2="-34.998507224906106" y2="48.006608179821974"/><line x1="-47.58657155040885" y1="33.690867491253044" x2="-34.087431830418716" y2="47.04628303944499"/><line x1="-45.29407905927151" y1="34.09725161930568" x2="-34.213778849013664" y2="45.059580832594264"/><line x1="-31.36032729130581" y1="43.9027229746803" x2="-27.64851137357077" y2="40.150962386806114"/><line x1="-32.73203677440372" y1="43.26005501567009" x2="-28.40986284068357" y2="38.89136805008283"/><line x1="-33.76158230530812" y1="42.27154091049265" x2="-29.536745566964385" y2="38.00123863354325"/><line x1="-34.77609372569109" y1="41.2678309053627" x2="-30.663628293245203" y2="37.11110921700368"/><line x1="-35.79060514607407" y1="40.264120900232754" x2="-31.79051101952602" y2="36.22097980046411"/><line x1="-36.80511656645705" y1="39.26041089510281" x2="-32.917393745806834" y2="35.330850383924535"/><line x1="-37.81962798684003" y1="38.25670088997286" x2="-34.044276472087645" y2="34.44072096738496"/><line x1="-38.83413940722301" y1="37.252990884842916" x2="-35.171159198368464" y2="33.55059155084538"/><line x1="-39.848650827605994" y1="36.24928087971297" x2="-36.29804192464928" y2="32.66046213430581"/><line x1="-40.86316224798898" y1="35.24557087458303" x2="-37.4249246509301" y2="31.770332717766234"/><line x1="-41.877673668371955" y1="34.241860869453085" x2="-38.55180737721091" y2="30.88020330122666"/><line x1="-42.892185088754935" y1="33.23815086432314" x2="-39.88994925340296" y2="30.203606497842216"/><line x1="-43.646736808342006" y1="31.97168360465865" x2="-42.93677345107695" y2="31.25407998377456"/><path d="M -27.932309290600593,38.432631587131354 L -28.769536899597536,39.61439082796443 L -29.777966520836863,41.03780425917835 L -31.229035794351788,40.00978161600663 L -30.22060617311246,38.586368184792704 L -31.347440449992664,37.78805264405434 L -30.51021284099572,36.606293403221265 L -29.383378564115517,37.40460894395963 Z" fill="#99948A" stroke="#1A1917" stroke-width="0.09999999999999999"/></g><g fill-rule="nonzero" stroke="#99948A" stroke-width="0.09999999999999999" stroke-linecap="butt"><line x1="-66.59547279742958" y1="1.0926103266418723" x2="-63.50976215800874" y2="2.9426523021024584"/><line x1="-68.9938917523354" y1="-2.2170090773047537" x2="-60.51281460160217" y2="2.8678321665654227"/><line x1="-71.3923107072412" y1="-5.526628481251368" x2="-57.51586704519562" y2="2.793012031028386"/><line x1="-73.51814257454127" y1="-8.672817929194792" x2="-54.51891948878905" y2="2.718191895491346"/><line x1="-73.3604963339089" y1="-10.449944997875967" x2="-52.83340206523711" y2="1.8571020551189026"/><line x1="-73.03734063237603" y1="-12.127840646057107" x2="-51.68210852773447" y2="0.6757175633755281"/><line x1="-72.21190609714041" y1="-13.504594342084928" x2="-50.68235116391605" y2="-0.5965206456720491"/><line x1="-71.38647156190478" y1="-14.881348038112748" x2="-49.68259380009763" y2="-1.8687588547196174"/><line x1="-70.56103702666915" y1="-16.258101734140563" x2="-48.68283643627921" y2="-3.140997063767191"/><line x1="-69.73560249143354" y1="-17.634855430168383" x2="-47.68307907246079" y2="-4.413235272814763"/><line x1="-68.91016795619791" y1="-19.0116091261962" x2="-46.68332170864237" y2="-5.685473481862335"/><line x1="-68.0847334209623" y1="-20.388362822224014" x2="-45.96811172169856" y2="-7.128312454474711"/><line x1="-67.25929888572666" y1="-21.765116518251833" x2="-45.97089792324627" y2="-9.00162701023487"/><line x1="-66.43386435049105" y1="-23.141870214279646" x2="-46.50601185997625" y2="-11.19409937755636"/><line x1="-65.60842981525542" y1="-24.518623910307465" x2="-47.42197588414756" y2="-13.614910928443209"/><line x1="-64.78299528001979" y1="-25.895377606335277" x2="-48.33793990831886" y2="-16.035722479330055"/><line x1="-63.957560744784175" y1="-27.272131302363093" x2="-49.25390393249016" y2="-18.456534030216893"/><line x1="-62.94549501674957" y1="-28.536990015044974" x2="-50.16986795666147" y2="-20.877345581103746"/><line x1="-61.71232277366493" y1="-29.669284018429554" x2="-51.08583198083277" y2="-23.298157131990592"/><line x1="-58.6287440223145" y1="-29.692164304201373" x2="-52.00179600500408" y2="-25.71896868287744"/><line x1="-54.90429091869522" y1="-29.33080750774437" x2="-53.714692707283476" y2="-28.617582295720727"/><line x1="-75.27906370056385" y1="-12.861696125198755" x2="-65.24606023206215" y2="-29.595881597068587"/><line x1="-76.92151340525724" y1="-13.156470006760216" x2="-66.54691451032019" y2="-30.460407222487987"/><line x1="-77.91705368044354" y1="-14.530233087404454" x2="-68.26609152724792" y2="-30.627206557073734"/><line x1="-78.91259395562984" y1="-15.903996168048694" x2="-70.75023254178582" y2="-29.518111843032862"/><line x1="-79.5723233216349" y1="-17.83786291609007" x2="-77.82480617584977" y2="-20.75257097182324"/><path d="M -70.754909813798,-26.59978142585511 L -72.82964216391551,-27.5732284759507 L -72.39727519523201,-28.494743145867055 L -71.36683044307222,-30.690956141843383 L -69.2920980929547,-29.717509091747793 L -68.33526273738153,-29.268569953040526 L -69.36570748954132,-27.072356957064198 L -70.3225428451145,-27.521296095771465 Z" fill="#99948A" stroke="#1A1917" stroke-width="0.09999999999999999"/></g><g fill-rule="nonzero" stroke="#99948A" stroke-width="0.09999999999999999" stroke-linecap="butt"><line x1="-43.80240741200566" y1="24.654041897037793" x2="-47.91742742575552" y2="16.704942784899558"/><line x1="-44.87496808618774" y1="26.060807717785732" x2="-49.861994782835204" y2="16.42722893710674"/><line x1="-46.155890211468545" y1="27.06507590294542" x2="-51.53477926789506" y2="16.67452565534967"/><line x1="-47.57610022427451" y1="27.800277784816597" x2="-53.12491831082747" y2="17.081470882820362"/><line x1="-48.99631023708048" y1="28.53547966668777" x2="-54.71505735375987" y2="17.488416110291055"/><line x1="-50.416520249886446" y1="29.270681548558944" x2="-56.305196396692274" y2="17.89536133776175"/><line x1="-51.83673026269242" y1="30.00588343043012" x2="-57.89533543962468" y2="18.302306565232442"/><line x1="-53.25694027549839" y1="30.741085312301294" x2="-59.48547448255708" y2="18.709251792703135"/><line x1="-54.67715028830436" y1="31.47628719417247" x2="-61.075613525489494" y2="19.11619702017383"/><line x1="-56.09736030111033" y1="32.21148907604365" x2="-62.665752568421894" y2="19.52314224764452"/><line x1="-57.517570313916295" y1="32.946690957914825" x2="-64.2558916113543" y2="19.930087475115215"/><line x1="-58.93778032672226" y1="33.681892839785995" x2="-65.84603065428671" y2="20.337032702585905"/><line x1="-60.35799033952823" y1="34.41709472165717" x2="-67.4361696972191" y2="20.743977930056598"/><line x1="-61.90046977275152" y1="34.91610534855672" x2="-68.89598866975807" y2="21.402666077949753"/><line x1="-63.8450371298312" y1="34.6383915007639" x2="-69.96854934394015" y2="22.809431898697692"/><line x1="-71.30456939398229" y1="19.3598473853291" x2="-50.658850061851616" y2="14.076235875220956"/><line x1="-72.55932323659219" y1="18.457326961112205" x2="-49.57455674631689" y2="12.575111145257003"/><line x1="-73.11866170594043" y1="17.37683721495683" x2="-50.10102751447999" y2="11.486209962256105"/><line x1="-73.67800017528867" y1="16.296347468801454" x2="-50.62749828264309" y2="10.397308779255207"/><line x1="-73.07833041567386" y1="14.919246637299738" x2="-51.15396905080618" y2="9.308407596254309"/><line x1="-71.91179812610766" y1="13.39707547234449" x2="-51.680439818969276" y2="8.219506413253413"/><line x1="-70.69219067410421" y1="11.861321417171522" x2="-52.20691058713238" y2="7.130605230252513"/><line x1="-69.47258322210077" y1="10.325567361998552" x2="-52.73338135529548" y2="6.041704047251614"/><line x1="-68.25297577009732" y1="8.789813306825579" x2="-53.864938137808906" y2="5.107655275958716"/><line x1="-67.03336831809388" y1="7.254059251652607" x2="-57.408814715419105" y2="4.790962598216838"/><line x1="-65.11493988084968" y1="5.539464317083545" x2="-62.707021822307894" y2="4.923234707214309"/><line x1="-67.72397775137557" y1="34.505834677875356" x2="-67.08544004483383" y2="33.38181578802586"/><line x1="-68.6591918808354" y1="33.97455402881912" x2="-67.67523477058629" y2="32.2424928405901"/><line x1="-69.5944060102952" y1="33.4432733797629" x2="-68.26502949633873" y2="31.10316989315436"/><line x1="-70.52962013975502" y1="32.911992730706665" x2="-68.85482422209118" y2="29.9638469457186"/><line x1="-71.46483426921483" y1="32.38071208165044" x2="-69.44461894784364" y2="28.824523998282856"/><line x1="-72.40004839867466" y1="31.84943143259421" x2="-70.03441367359609" y2="27.6852010508471"/><line x1="-73.33526252813446" y1="31.31815078353798" x2="-70.62420839934853" y2="26.545878103411354"/><line x1="-74.27047665759429" y1="30.78687013448175" x2="-71.21400312510099" y2="25.406555155975596"/><line x1="-75.2056907870541" y1="30.255589485425524" x2="-71.80379785085343" y2="24.267232208539852"/><line x1="-76.14090491651392" y1="29.724308836369293" x2="-72.39359257660588" y2="23.127909261104094"/><line x1="-77.07611904597373" y1="29.193028187313068" x2="-72.98338730235832" y2="21.98858631366835"/><line x1="-78.01133317543355" y1="28.661747538256833" x2="-73.57318202811078" y2="20.84926336623259"/><line x1="-78.94654730489336" y1="28.130466889200605" x2="-74.16297675386323" y2="19.709940418796847"/><line x1="-79.88176143435318" y1="27.599186240144377" x2="-75.00201466589851" y2="19.009360628856783"/><line x1="-80.7165445032944" y1="26.89111664347549" x2="-75.93722879535832" y2="18.478079979800555"/><line x1="-81.30633922904686" y1="25.751793696039734" x2="-80.25875626767713" y2="23.907731825925143"/></g><g fill-rule="nonzero" stroke="#99948A" stroke-width="0.09999999999999999" stroke-linecap="butt"><line x1="33.39369717799484" y1="74.49638700336645" x2="35.50032094967397" y2="66.73144756205755"/><line x1="31.606045564613904" y1="74.69620175137335" x2="34.10008203023065" y2="65.50327305651959"/><line x1="29.929389103839135" y1="74.48689235967743" x2="32.59075009565079" y2="64.67721148039656"/><line x1="28.314787287526574" y1="74.0488517807715" x2="30.976148279338233" y2="64.23917090149064"/><line x1="26.70018547121401" y1="73.61081120186559" x2="29.361546463025668" y2="63.801130322584726"/><line x1="25.08558365490145" y1="73.17277062295966" x2="27.746944646713104" y2="63.363089743678806"/><line x1="23.47098183858888" y1="72.73473004405375" x2="26.13234283040054" y2="62.92504916477289"/><line x1="21.85638002227632" y1="72.29668946514782" x2="24.517741014087978" y2="62.487008585866974"/><line x1="20.24177820596375" y1="71.85864888624191" x2="22.903139197775413" y2="62.04896800696105"/><line x1="18.62717638965119" y1="71.42060830733598" x2="21.28853738146285" y2="61.610927428055135"/><line x1="17.012574573338625" y1="70.98256772843007" x2="19.673935565150284" y2="61.17288684914921"/><line x1="15.397972757026062" y1="70.54452714952416" x2="18.059333748837723" y2="60.734846270243295"/><line x1="13.7833709407135" y1="70.10648657061823" x2="16.44473193252516" y2="60.29680569133737"/><line x1="12.168769124400933" y1="69.6684459917123" x2="14.830130116212596" y2="59.858765112431456"/><line x1="10.579077013403124" y1="69.1385891350874" x2="13.215528299900031" y2="59.42072453352553"/><line x1="9.126088371287176" y1="68.1048482097669" x2="11.538871839125262" y2="59.21141514182961"/><line x1="9.164211765957702" y1="61.574921956287476" x2="9.751220225744326" y2="59.41122988983651"/><line x1="9.846800233363602" y1="56.123649284125825" x2="34.16186568412999" y2="62.72031307985584"/><line x1="10.291483055783402" y1="54.59852371503877" x2="36.65145140405028" y2="61.74996853478202"/><line x1="11.473022547695498" y1="53.27330695245377" x2="37.00932297681335" y2="60.201291121722676"/><line x1="12.74126106019367" y1="51.97161158615633" x2="37.36719454957642" y2="58.652613708663324"/><line x1="14.010979280433144" y1="50.67031766374993" x2="37.725066122339484" y2="57.10393629560397"/><line x1="15.280697500672614" y1="49.36902374134352" x2="38.08293769510256" y2="55.55525888254462"/><line x1="16.55041572091209" y1="48.06772981893712" x2="38.44080926786563" y2="54.00658146948527"/><line x1="17.820133941151568" y1="46.76643589653071" x2="38.79868084062869" y2="52.45790405642592"/><line x1="19.089852161391036" y1="45.4651419741243" x2="39.156552413391765" y2="50.90922664336657"/><line x1="20.359570381630512" y1="44.16384805171789" x2="39.03061261951437" y2="49.22929147438047"/><line x1="21.629288601869987" y1="42.86255412931149" x2="37.6262088522851" y2="47.20250973719441"/><line x1="22.899006822109456" y1="41.56126020690508" x2="32.437956264297014" y2="44.14917190971296"/><line x1="25.627757226825455" y1="40.65580090841238" x2="27.24970367630892" y2="41.095834082231505"/><path d="M 33.246587343848084,64.97773748174501 L 33.625618589523,67.29472530950255 L 32.63214516535137,67.45724557180067 L 31.283095599592556,67.67793379953368 L 30.003159987497646,67.88731581856031 L 29.624128741822734,65.57032799080277 L 29.474231718618935,64.6540194221995 L 30.754167330713845,64.44463740317286 L 32.10321689647266,64.22394917543986 L 32.25311391967646,65.14025774404313 Z" fill="#99948A" stroke="#1A1917" stroke-width="0.09999999999999999"/></g><g/><g fill-rule="nonzero" stroke="#99948A" stroke-width="0.09999999999999999" stroke-linecap="butt"><line x1="-36.16469736539386" y1="-38.51300478116948" x2="-50.312718506756" y2="-56.53890639945678"/><line x1="-37.61590898979715" y1="-38.14182027088398" x2="-52.19413415762907" y2="-56.71584203823326"/><line x1="-39.08254005871584" y1="-37.79028157445939" x2="-53.832847064890814" y2="-56.583551691614794"/><line x1="-40.55270203883147" y1="-37.443241589001005" x2="-54.91113811055925" y2="-55.73723150005324"/><line x1="-42.02286401894708" y1="-37.09620160354262" x2="-55.98942915622769" y2="-54.890911308491695"/><line x1="-43.49302599906271" y1="-36.74916161808423" x2="-57.06772020189613" y2="-54.04459111693014"/><line x1="-44.96318797917833" y1="-36.40212163262585" x2="-58.14601124756457" y2="-53.19827092536859"/><line x1="-46.43334995929395" y1="-36.05508164716746" x2="-59.22430229323301" y2="-52.35195073380704"/><line x1="-47.90351193940957" y1="-35.708041661709075" x2="-60.30259333890145" y2="-51.50563054224549"/><line x1="-49.373673919525196" y1="-35.36100167625069" x2="-61.38088438456989" y2="-50.65931035068394"/><line x1="-50.843835899640816" y1="-35.01396169079231" x2="-62.459175430238325" y2="-49.81299015912239"/><line x1="-52.38405296901337" y1="-34.75617843842672" x2="-63.53746647590677" y2="-48.96666996756085"/><line x1="-54.016586959933484" y1="-34.61601557472838" x2="-64.6157575215752" y2="-48.12034977599929"/><line x1="-55.777947400924894" y1="-34.63998965227543" x2="-65.69404856724364" y2="-47.27402958443774"/><line x1="-57.66412448130365" y1="-34.82299179738339" x2="-66.77233961291209" y2="-46.427709392876196"/><line x1="-59.5503015616824" y1="-35.00599394249134" x2="-67.85063065858053" y2="-45.58138920131464"/><line x1="-61.43647864206116" y1="-35.188996087599286" x2="-68.92892170424896" y2="-44.73506900975309"/><line x1="-63.32265572243992" y1="-35.37199823270724" x2="-70.00721274991741" y2="-43.88874881819154"/><line x1="-65.20883280281868" y1="-35.55500037781519" x2="-70.84323935182074" y2="-42.73376107621535"/><line x1="-67.45089013671794" y1="-36.191427236793345" x2="-71.3192975261406" y2="-41.12013990441345"/><line x1="-48.94876928106558" y1="-59.01223617555975" x2="-36.26149837737006" y2="-42.847466924122514"/><line x1="-48.69136078453503" y1="-60.61895908109595" x2="-34.78540307731684" y2="-42.90146890817376"/><line x1="-47.7517211304574" y1="-61.35645571081603" x2="-34.35412344032106" y2="-44.286663725720125"/><line x1="-46.81208147637977" y1="-62.093952340536106" x2="-33.922843803325286" y2="-45.671858543266495"/><line x1="-45.872441822302136" y1="-62.83144897025618" x2="-33.491564166329496" y2="-47.057053360812866"/><line x1="-43.69082418528654" y1="-61.986549538447385" x2="-33.06028452933372" y2="-48.44224817835923"/><line x1="-40.363078717598235" y1="-59.68137610002949" x2="-32.62900489233794" y2="-49.8274429959056"/><line x1="-37.03533324990994" y1="-57.37620266161159" x2="-32.19772525534216" y2="-51.21263781345196"/><line x1="-33.70758778222164" y1="-55.0710292231937" x2="-32.335842874508764" y2="-53.32329796772299"/><path d="M -41.16415962485077,-38.17344932320308 L -42.20753460345114,-38.78465552786263 L -41.29916163225685,-40.33531653580988 L -42.41578112741277,-40.98942917765092 L -41.71038006985071,-42.193601857390725 L -40.593760574694784,-41.539489215549686 L -39.550385596094415,-40.928283010890134 L -38.57841119247346,-40.35890306748731 L -39.283812250035524,-39.154730387747506 L -40.25578665365648,-39.72411033115033 Z" fill="#99948A" stroke="#1A1917" stroke-width="0.09999999999999999"/></g><g/><g/><g/><g/><g/><g/><g/><g/><g/><g/><g/><g/><g/><g/><g/><g/><g/><g/><g/><g/><g/><g/><g/><g/><g/></g><g id="scaleBar" stroke="#1A1917" stroke-width="1" stroke-linejoin="miter" stroke-linecap="butt" style="font: bold 6px Archivo Narrow, sans-serif" fill="none" transform="translate(4 96.87499136016145) scale(0.37158561481543767 0.37158561481543767)"><path d="M 0,-5 L 0,0 L 67.27924602898638,0 L 67.27924602898638,-5 M 16.819811507246595,0 L 16.819811507246595,-2.5 M 33.63962301449319,0 L 33.63962301449319,-5 M 50.45943452173978,0 L 50.45943452173978,-2.5"/><text text-anchor="middle" fill="#1A1917" stroke="none" x="0" y="-6">0</text><text text-anchor="middle" fill="#1A1917" stroke="none" x="33.63962301449319" y="-6">50</text><text text-anchor="middle" fill="#1A1917" stroke="none" x="67.27924602898638" y="-6">100m</text></g></svg>